<?xml version="1.0" standalone="yes"?>
<!DOCTYPE svg PUBLIC "-//W3C//DTD SVG 1.1//EN"
 "http://www.w3.org/Graphics/SVG/1.1/DTD/svg11.dtd">
<svg xmlns="http://www.w3.org/2000/svg" version="1.1"
  width="100%" height="100%" viewBox="0 0 1024 768"
  style="fill: none; font-family: Helvetica;
 font: Helvetica;
">

<!-- Creator: NGspice -->

<rect x="0" y="0" width="1024" height="768" fill="black" stroke="none"/>
<text stroke="none" fill="white" font-size="16" x="358" y="752">
time
</text>
<text stroke="none" fill="white" font-size="16" x="10" y="16">
tran1: * r2r mixed signal
</text>
<path stroke="white" d="M50 704l0 -640"/>
<text stroke="none" fill="white" font-size="16" x="35" y="728">
0.0
</text>
<path stroke="white" stroke-dasharray="1,2" d="M165 704l0 -640"/>
<text stroke="none" fill="white" font-size="16" x="150" y="728">
5.0
</text>
<path stroke="white" stroke-dasharray="1,2" d="M280 704l0 -640"/>
<text stroke="none" fill="white" font-size="16" x="260" y="728">
10.0
</text>
<path stroke="white" stroke-dasharray="1,2" d="M395 704l0 -640"/>
<text stroke="none" fill="white" font-size="16" x="375" y="728">
15.0
</text>
<path stroke="white" stroke-dasharray="1,2" d="M510 704l0 -640"/>
<text stroke="none" fill="white" font-size="16" x="490" y="728">
20.0
</text>
<path stroke="white" stroke-dasharray="1,2" d="M625 704l0 -640"/>
<text stroke="none" fill="white" font-size="16" x="605" y="728">
25.0
</text>
<path stroke="white" stroke-dasharray="1,2" d="M740 704l0 -640"/>
<text stroke="none" fill="white" font-size="16" x="720" y="728">
30.0
</text>
<path stroke="white" stroke-dasharray="1,2" d="M855 704l0 -640"/>
<text stroke="none" fill="white" font-size="16" x="835" y="728">
35.0
</text>
<path stroke="white" stroke-dasharray="1,2" d="M970 704l0 -640"/>
<text stroke="none" fill="white" font-size="16" x="950" y="728">
40.0
</text>
<text stroke="none" fill="white" font-size="16" x="614" y="752">
us
</text>
<path stroke="white" d="M50 704l920 0"/>
<text stroke="none" fill="white" font-size="16" x="18" y="712">
0.0
</text>
<path stroke="white" stroke-dasharray="1,2" d="M50 624l920 0"/>
<text stroke="none" fill="white" font-size="16" x="18" y="632">
0.5
</text>
<path stroke="white" stroke-dasharray="1,2" d="M50 544l920 0"/>
<text stroke="none" fill="white" font-size="16" x="18" y="552">
1.0
</text>
<path stroke="white" stroke-dasharray="1,2" d="M50 464l920 0"/>
<text stroke="none" fill="white" font-size="16" x="18" y="472">
1.5
</text>
<path stroke="white" stroke-dasharray="1,2" d="M50 384l920 0"/>
<text stroke="none" fill="white" font-size="16" x="18" y="392">
2.0
</text>
<path stroke="white" stroke-dasharray="1,2" d="M50 304l920 0"/>
<text stroke="none" fill="white" font-size="16" x="18" y="312">
2.5
</text>
<path stroke="white" stroke-dasharray="1,2" d="M50 224l920 0"/>
<text stroke="none" fill="white" font-size="16" x="18" y="232">
3.0
</text>
<path stroke="white" stroke-dasharray="1,2" d="M50 144l920 0"/>
<text stroke="none" fill="white" font-size="16" x="18" y="152">
3.5
</text>
<path stroke="white" stroke-dasharray="1,2" d="M50 64l920 0"/>
<text stroke="none" fill="white" font-size="16" x="18" y="72">
4.0
</text>
<text stroke="none" fill="white" font-size="16" x="10" y="32">
     
</text>
<path stroke="red" d="M460 23l46 0"/>
<text stroke="none" fill="white" font-size="16" x="516" y="32">
clk
</text>
<path stroke="red" d="M50 416l12 0M62 704l0 -288M62 704l46 0 0 -288 46 0M154 704l0 -288M154 704l46 0 0 -288 46 0M246 704l0 -288M246 704l46 0 0 -288 45 0 1 62M338 704l0 -226M338 704l46 0 0 -288 46 0M430 704l0 -288M430 704l46 0 0 -288 45 0 1 29"/>
<path stroke="red" d="M522 704l0 -259M522 704l46 0 0 -288 45 0 1 71M614 704l0 -217M614 704l46 0 0 -288 45 0 1 29M706 704l0 -259M706 704l46 0 0 -288 45 0 1 29M798 704l0 -259M798 704l46 0 0 -288 46 0M890 704l0 -288M890 704l46 0 0 -288 34 0"/>
<path stroke="blue" d="M50 23l46 0"/>
<text stroke="none" fill="white" font-size="16" x="106" y="32">
"count[0]" + 2
</text>
<path stroke="blue" d="M50 384l150 0 0 -291M200 96l46 0M246 97l0 -1 46 0M292 391l0 -299M292 385l1 -2M293 385l0 -2M293 385l1 -2M294 385l0 -2M294 385l1 -2M295 385l0 -2 1 2 0 -2 1 2 0 -2 1 2 0 -2M298 385l1 -2M299 385l0 -2M299 385l1 -2M300 385l0 -2"/>
<path stroke="blue" d="M300 385l1 -2M301 385l0 -2 1 2 0 -2 1 2 0 -2 1 2 0 -2M304 385l1 -2M305 385l0 -2M305 385l1 -2M306 385l0 -2M306 385l1 -2M307 385l0 -2 1 2 0 -2 1 2 0 -2M309 385l1 -2M310 385l0 -2M310 385l1 -2M311 385l0 -2M311 385l1 -2M312 385l0 -2"/>
<path stroke="blue" d="M312 383l1 2 0 -2 1 2 0 -2 1 2 0 -2M315 385l1 -2M316 385l0 -2M316 385l1 -2M317 385l0 -2M317 385l1 -2M318 385l0 -2 1 2 0 -2 1 2 0 -2 1 2 0 -2M321 385l1 -2M322 385l0 -2M322 385l1 -2M323 385l0 -2M323 385l1 -2M324 385l0 -2"/>
<path stroke="blue" d="M324 383l1 2 0 -2 1 2 0 -2 1 2 0 -2M327 385l1 -2M328 385l0 -2M328 385l1 -2M329 385l0 -2M329 385l1 -2M330 385l0 -2 1 2 0 -2 1 2 0 -2M332 385l1 -2M333 385l0 -2M333 385l1 -2M334 385l0 -2M334 385l1 -2M335 385l0 -2 1 2 0 -2"/>
<path stroke="blue" d="M336 384l48 0 0 -289M384 96l46 0M430 97l0 -1 46 0M476 392l0 -301M476 383l1 2 0 -2 1 2 0 -2 1 2 0 -2M479 385l1 -2M480 385l0 -2M480 385l1 -2M481 385l0 -2M481 385l1 -2M482 385l0 -2 1 2 0 -2 1 2 0 -2 1 2 0 -2M485 384l83 0 0 -290"/>
<path stroke="blue" d="M568 96l46 0M614 97l0 -1 46 0M660 390l0 -300M660 385l1 -2M661 385l0 -2 1 2 0 -2 1 2 0 -2 1 2 0 -2M664 385l1 -2M665 385l0 -2M665 385l1 -2M666 385l0 -2M666 385l1 -2M667 385l0 -2 1 2 0 -2 1 2 0 -2 1 2 0 -2M670 385l1 -2M671 385l0 -2"/>
<path stroke="blue" d="M671 385l1 -2M672 385l0 -2M672 385l1 -2M673 385l0 -2 1 2 0 -2 1 2 0 -2M675 385l1 -2M676 385l0 -2M676 385l1 -2M677 385l0 -2M677 385l1 -2M678 385l0 -2 1 2 0 -2 1 2 0 -2 1 2 0 -2M681 385l1 -2M682 385l0 -2M682 385l1 -2M683 385l0 -2"/>
<path stroke="blue" d="M683 385l1 -2M684 385l0 -2 1 2 0 -2 1 2 0 -2 1 2 0 -2M687 385l1 -2M688 385l0 -2M688 385l1 -2M689 385l0 -2M689 385l1 -2M690 385l0 -2 1 2 0 -2 1 2 0 -2 1 2 0 -2M693 385l1 -2M694 385l0 -2M694 384l58 0 0 -291M752 96l46 0M798 97l0 -1"/>
<path stroke="blue" d="M798 96l46 0M844 392l0 -300M844 385l1 -2M845 385l0 -2M845 385l1 -2M846 385l0 -2M846 385l1 -2M847 385l0 -2 1 2 0 -2 1 2 0 -2 1 2 0 -2M850 385l1 -2M851 385l0 -2M851 385l1 -2M852 385l0 -2M852 385l1 -2M853 385l0 -2 1 2 0 -2"/>
<path stroke="blue" d="M854 383l1 2 0 -2 1 2 0 -2M856 385l1 -2M857 385l0 -2M857 385l1 -2M858 385l0 -2M858 385l1 -2M859 385l0 -2 1 2 0 -2 1 2 0 -2 1 2 0 -2M862 385l1 -2M863 385l0 -2M863 385l1 -2M864 385l0 -2 1 2 0 -2 1 2 0 -2 1 2 0 -2M867 385l1 -2"/>
<path stroke="blue" d="M868 385l0 -2M868 385l1 -2M869 385l0 -2M869 385l1 -2M870 385l0 -2 1 2 0 -2 1 2 0 -2 1 2 0 -2M873 385l1 -2M874 385l0 -2M874 385l1 -2M875 385l0 -2M875 385l1 -2M876 385l0 -2 1 2 0 -2 1 2 0 -2 1 2 0 -2M879 385l1 -2M880 385l0 -2"/>
<path stroke="blue" d="M880 385l1 -2M881 385l0 -2M881 385l1 -2M882 385l0 -2 1 2 0 -2 1 2 0 -2 1 2 0 -2M885 385l1 -2M886 385l0 -2M886 385l1 -2M887 385l0 -2 1 2 0 -2 1 1 47 0 0 -289M936 96l34 0"/>
</svg>
