<?xml version="1.0" standalone="yes"?>
<!DOCTYPE svg PUBLIC "-//W3C//DTD SVG 1.1//EN"
 "http://www.w3.org/Graphics/SVG/1.1/DTD/svg11.dtd">
<svg xmlns="http://www.w3.org/2000/svg" version="1.1"
  width="100%" height="100%" viewBox="0 0 1024 768"
  style="fill: none; font-family: Helvetica;
 font: Helvetica;
">

<!-- Creator: NGspice -->

<rect x="0" y="0" width="1024" height="768" fill="black" stroke="none"/>
<text stroke="none" fill="white" font-size="16" x="358" y="752">
time
</text>
<text stroke="none" fill="white" font-size="16" x="10" y="16">
tran1: * r2r mixed signal
</text>
<path stroke="white" d="M50 704l0 -640"/>
<text stroke="none" fill="white" font-size="16" x="35" y="728">
0.0
</text>
<path stroke="white" stroke-dasharray="1,2" d="M165 704l0 -640"/>
<text stroke="none" fill="white" font-size="16" x="150" y="728">
5.0
</text>
<path stroke="white" stroke-dasharray="1,2" d="M280 704l0 -640"/>
<text stroke="none" fill="white" font-size="16" x="260" y="728">
10.0
</text>
<path stroke="white" stroke-dasharray="1,2" d="M395 704l0 -640"/>
<text stroke="none" fill="white" font-size="16" x="375" y="728">
15.0
</text>
<path stroke="white" stroke-dasharray="1,2" d="M510 704l0 -640"/>
<text stroke="none" fill="white" font-size="16" x="490" y="728">
20.0
</text>
<path stroke="white" stroke-dasharray="1,2" d="M625 704l0 -640"/>
<text stroke="none" fill="white" font-size="16" x="605" y="728">
25.0
</text>
<path stroke="white" stroke-dasharray="1,2" d="M740 704l0 -640"/>
<text stroke="none" fill="white" font-size="16" x="720" y="728">
30.0
</text>
<path stroke="white" stroke-dasharray="1,2" d="M855 704l0 -640"/>
<text stroke="none" fill="white" font-size="16" x="835" y="728">
35.0
</text>
<path stroke="white" stroke-dasharray="1,2" d="M970 704l0 -640"/>
<text stroke="none" fill="white" font-size="16" x="950" y="728">
40.0
</text>
<text stroke="none" fill="white" font-size="16" x="614" y="752">
us
</text>
<path stroke="white" d="M50 704l920 0"/>
<text stroke="none" fill="white" font-size="16" x="18" y="712">
0.0
</text>
<path stroke="white" stroke-dasharray="1,2" d="M50 624l920 0"/>
<text stroke="none" fill="white" font-size="16" x="18" y="632">
0.5
</text>
<path stroke="white" stroke-dasharray="1,2" d="M50 544l920 0"/>
<text stroke="none" fill="white" font-size="16" x="18" y="552">
1.0
</text>
<path stroke="white" stroke-dasharray="1,2" d="M50 464l920 0"/>
<text stroke="none" fill="white" font-size="16" x="18" y="472">
1.5
</text>
<path stroke="white" stroke-dasharray="1,2" d="M50 384l920 0"/>
<text stroke="none" fill="white" font-size="16" x="18" y="392">
2.0
</text>
<path stroke="white" stroke-dasharray="1,2" d="M50 304l920 0"/>
<text stroke="none" fill="white" font-size="16" x="18" y="312">
2.5
</text>
<path stroke="white" stroke-dasharray="1,2" d="M50 224l920 0"/>
<text stroke="none" fill="white" font-size="16" x="18" y="232">
3.0
</text>
<path stroke="white" stroke-dasharray="1,2" d="M50 144l920 0"/>
<text stroke="none" fill="white" font-size="16" x="18" y="152">
3.5
</text>
<path stroke="white" stroke-dasharray="1,2" d="M50 64l920 0"/>
<text stroke="none" fill="white" font-size="16" x="18" y="72">
4.0
</text>
<text stroke="none" fill="white" font-size="16" x="10" y="32">
     
</text>
<path stroke="red" d="M460 23l46 0"/>
<text stroke="none" fill="white" font-size="16" x="516" y="32">
clk
</text>
<path stroke="red" d="M50 416l12 0M62 704l0 -288M62 704l46 0 0 -288 46 0M154 704l0 -288M154 704l46 0 0 -288 46 0M246 704l0 -288M246 704l46 0 0 -288 45 0 1 61M338 704l0 -227M338 704l46 0 0 -288 46 0M430 704l0 -288M430 704l46 0 0 -288 45 0 1 29"/>
<path stroke="red" d="M522 704l0 -259M522 704l46 0 0 -288 45 0 1 37M614 704l0 -251M614 704l46 0 0 -288 45 0 1 29M706 704l0 -259M706 704l46 0 0 -288 45 0 1 29M798 704l0 -259M798 704l46 0 0 -288 46 0M890 704l0 -288M890 704l46 0 0 -288 34 0"/>
<path stroke="blue" d="M50 23l46 0"/>
<text stroke="none" fill="white" font-size="16" x="106" y="32">
"count[0]" + 2
</text>
<path stroke="blue" d="M50 384l150 0M200 385l0 -302M200 98l1 -4M201 97l0 -3M201 97l1 -2M202 97l0 -2M202 97l1 -2M203 97l0 -2 1 2 0 -2 1 2 0 -2M205 97l1 -2M206 97l0 -2M206 97l1 -2M207 97l0 -2M207 97l1 -2M208 97l0 -2 1 2 0 -2 1 2 0 -2 1 2 0 -2M211 97l1 -2"/>
<path stroke="blue" d="M212 97l0 -2M212 97l1 -2M213 97l0 -2M213 97l1 -2M214 97l0 -2 1 2 0 -2 1 2 0 -2 1 2 0 -2M217 97l1 -2M218 97l0 -2M218 97l1 -2M219 97l0 -2M219 97l1 -2M220 97l0 -2 1 2 0 -2 1 2 0 -2 1 2 0 -2M223 97l1 -2M224 97l0 -2M224 97l1 -2"/>
<path stroke="blue" d="M225 97l0 -2M225 97l1 -2M226 97l0 -2 1 2 0 -2 1 2 0 -2M228 97l1 -2M229 97l0 -2M229 97l1 -2M230 97l0 -2M230 97l1 -2M231 97l0 -2 1 1 14 0M246 97l0 -1 46 0M292 386l0 -300M292 385l1 -2M293 385l0 -2M293 385l1 -2M294 385l0 -2"/>
<path stroke="blue" d="M294 385l1 -2M295 385l0 -2 1 2 0 -2 1 2 0 -2 1 2 0 -2M298 385l1 -2M299 385l0 -2M299 385l1 -2M300 385l0 -2M300 385l1 -2M301 385l0 -2 1 2 0 -2 1 2 0 -2 1 2 0 -2M304 385l1 -2M305 385l0 -2M305 385l1 -2M306 385l0 -2M306 385l1 -2"/>
<path stroke="blue" d="M307 385l0 -2 1 2 0 -2 1 2 0 -2M309 385l1 -2M310 385l0 -2M310 385l1 -2M311 385l0 -2M311 385l1 -2M312 385l0 -2 1 2 0 -2 1 2 0 -2 1 2 0 -2M315 385l1 -2M316 385l0 -2M316 385l1 -2M317 385l0 -2M317 385l1 -2M318 385l0 -2 1 2"/>
<path stroke="blue" d="M319 385l0 -2 1 2 0 -2 1 2 0 -2M321 385l1 -2M322 385l0 -2M322 385l1 -2M323 385l0 -2M323 385l1 -2M324 385l0 -2 1 2 0 -2M325 384l59 0M384 386l0 -294M384 96l46 0M430 97l0 -1 46 0M476 389l0 -299M476 385l1 -2M477 385l0 -2 1 2"/>
<path stroke="blue" d="M478 385l0 -2 1 2 0 -2 1 2 0 -2M480 385l1 -2M481 385l0 -2M481 385l1 -2M482 385l0 -2M482 385l1 -2M483 385l0 -2 1 2 0 -2 1 2 0 -2 1 2 0 -2M486 384l82 0M568 385l0 -308M568 95l1 2 0 -2M569 97l1 -2M570 97l0 -2M570 97l1 -2M571 97l0 -2"/>
<path stroke="blue" d="M571 97l1 -2M572 97l0 -2 1 2 0 -2 1 2 0 -2 1 2 0 -2M575 97l1 -2M576 97l0 -2M576 97l1 -2M577 97l0 -2M577 97l1 -2M578 97l0 -2 1 2 0 -2 1 2 0 -2 1 2 0 -2M581 97l1 -2M582 97l0 -2M582 97l1 -2M583 97l0 -2M583 97l1 -2M584 97l0 -2"/>
<path stroke="blue" d="M584 95l1 2 0 -2 1 2 0 -2M586 97l1 -2M587 97l0 -2M587 97l1 -2M588 97l0 -2M588 96l26 0M614 97l0 -1 46 0M660 385l0 -299M660 385l1 -2M661 385l0 -2M661 385l1 -2M662 385l0 -2M662 385l1 -2M663 385l0 -2 1 2 0 -2 1 2 0 -2 1 2 0 -2"/>
<path stroke="blue" d="M666 385l1 -2M667 385l0 -2M667 385l1 -2M668 385l0 -2M668 385l1 -2M669 385l0 -2 1 2 0 -2 1 2 0 -2 1 2 0 -2M672 385l1 -2M673 385l0 -2M673 385l1 -2M674 385l0 -2M674 385l1 -2M675 385l0 -2 1 2 0 -2 1 2 0 -2M677 385l1 -2M678 385l0 -2"/>
<path stroke="blue" d="M678 385l1 -2M679 385l0 -2M679 385l1 -2M680 385l0 -2 1 2 0 -2 1 2 0 -2 1 2 0 -2M683 385l1 -2M684 385l0 -2M684 385l1 -2M685 385l0 -2M685 385l1 -2M686 385l0 -2 1 2 0 -2 1 2 0 -2 1 2 0 -2M689 385l1 -2M690 385l0 -2M690 385l1 -2"/>
<path stroke="blue" d="M691 385l0 -2M691 385l1 -2M692 385l0 -2M692 384l60 0M752 386l0 -293M752 96l46 0M798 97l0 -1 46 0M844 389l0 -299M844 385l1 -2M845 385l0 -2 1 2 0 -2 1 2 0 -2 1 2 0 -2M848 385l1 -2M849 385l0 -2M849 385l1 -2M850 385l0 -2M850 385l1 -2"/>
<path stroke="blue" d="M851 385l0 -2 1 2 0 -2 1 2 0 -2 1 2 0 -2M854 385l1 -2M855 385l0 -2M855 385l1 -2M856 385l0 -2M856 385l1 -2M857 385l0 -2 1 2 0 -2 1 2 0 -2M859 385l1 -2M860 385l0 -2M860 385l1 -2M861 385l0 -2M861 385l1 -2M862 385l0 -2M862 384l74 0"/>
<path stroke="blue" d="M936 386l0 -297M936 96l34 0"/>
</svg>
