<?xml version="1.0" standalone="yes"?>
<!DOCTYPE svg PUBLIC "-//W3C//DTD SVG 1.1//EN"
 "http://www.w3.org/Graphics/SVG/1.1/DTD/svg11.dtd">
<svg xmlns="http://www.w3.org/2000/svg" version="1.1"
  width="100%" height="100%" viewBox="0 0 1024 768"
  style="fill: none; font-family: Helvetica;
 font: Helvetica;
">

<!-- Creator: NGspice -->

<rect x="0" y="0" width="1024" height="768" fill="black" stroke="none"/>
<text stroke="none" fill="white" font-size="16" x="358" y="752">
time
</text>
<text stroke="none" fill="white" font-size="16" x="10" y="16">
tran1: * r2r mixed signal
</text>
<path stroke="white" d="M50 704l0 -640"/>
<text stroke="none" fill="white" font-size="16" x="35" y="728">
0.0
</text>
<path stroke="white" stroke-dasharray="1,2" d="M165 704l0 -640"/>
<text stroke="none" fill="white" font-size="16" x="150" y="728">
5.0
</text>
<path stroke="white" stroke-dasharray="1,2" d="M280 704l0 -640"/>
<text stroke="none" fill="white" font-size="16" x="260" y="728">
10.0
</text>
<path stroke="white" stroke-dasharray="1,2" d="M395 704l0 -640"/>
<text stroke="none" fill="white" font-size="16" x="375" y="728">
15.0
</text>
<path stroke="white" stroke-dasharray="1,2" d="M510 704l0 -640"/>
<text stroke="none" fill="white" font-size="16" x="490" y="728">
20.0
</text>
<path stroke="white" stroke-dasharray="1,2" d="M625 704l0 -640"/>
<text stroke="none" fill="white" font-size="16" x="605" y="728">
25.0
</text>
<path stroke="white" stroke-dasharray="1,2" d="M740 704l0 -640"/>
<text stroke="none" fill="white" font-size="16" x="720" y="728">
30.0
</text>
<path stroke="white" stroke-dasharray="1,2" d="M855 704l0 -640"/>
<text stroke="none" fill="white" font-size="16" x="835" y="728">
35.0
</text>
<path stroke="white" stroke-dasharray="1,2" d="M970 704l0 -640"/>
<text stroke="none" fill="white" font-size="16" x="950" y="728">
40.0
</text>
<text stroke="none" fill="white" font-size="16" x="614" y="752">
us
</text>
<path stroke="white" d="M50 704l920 0"/>
<text stroke="none" fill="white" font-size="16" x="18" y="712">
0.0
</text>
<path stroke="white" stroke-dasharray="1,2" d="M50 624l920 0"/>
<text stroke="none" fill="white" font-size="16" x="18" y="632">
0.5
</text>
<path stroke="white" stroke-dasharray="1,2" d="M50 544l920 0"/>
<text stroke="none" fill="white" font-size="16" x="18" y="552">
1.0
</text>
<path stroke="white" stroke-dasharray="1,2" d="M50 464l920 0"/>
<text stroke="none" fill="white" font-size="16" x="18" y="472">
1.5
</text>
<path stroke="white" stroke-dasharray="1,2" d="M50 384l920 0"/>
<text stroke="none" fill="white" font-size="16" x="18" y="392">
2.0
</text>
<path stroke="white" stroke-dasharray="1,2" d="M50 304l920 0"/>
<text stroke="none" fill="white" font-size="16" x="18" y="312">
2.5
</text>
<path stroke="white" stroke-dasharray="1,2" d="M50 224l920 0"/>
<text stroke="none" fill="white" font-size="16" x="18" y="232">
3.0
</text>
<path stroke="white" stroke-dasharray="1,2" d="M50 144l920 0"/>
<text stroke="none" fill="white" font-size="16" x="18" y="152">
3.5
</text>
<path stroke="white" stroke-dasharray="1,2" d="M50 64l920 0"/>
<text stroke="none" fill="white" font-size="16" x="18" y="72">
4.0
</text>
<text stroke="none" fill="white" font-size="16" x="10" y="32">
     
</text>
<path stroke="red" d="M460 23l46 0"/>
<text stroke="none" fill="white" font-size="16" x="516" y="32">
clk
</text>
<path stroke="red" d="M50 416l12 0M62 704l0 -288M62 704l46 0 0 -288 46 0M154 704l0 -288M154 704l46 0 0 -288 46 0M246 704l0 -288M246 704l46 0 0 -288 45 0 1 16M338 704l0 -272M338 704l46 0 0 -288 46 0M430 704l0 -288M430 704l46 0 0 -288 45 0 1 29"/>
<path stroke="red" d="M522 704l0 -259M522 704l46 0 0 -288 45 0 1 16M614 704l0 -272M614 704l46 0 0 -288 45 0 1 29M706 704l0 -259M706 704l46 0 0 -288 45 0 1 29M798 704l0 -259M798 704l46 0 0 -288 46 0M890 704l0 -288M890 704l46 0 0 -288 34 0"/>
<path stroke="blue" d="M50 23l46 0"/>
<text stroke="none" fill="white" font-size="16" x="106" y="32">
"count[0]" + 2
</text>
<path stroke="blue" d="M50 384l150 0 0 -289M200 96l46 0M246 97l0 -1 46 0M292 394l0 -305M292 386l1 -4M293 386l0 -4M293 386l1 -4M294 386l0 -4 1 4 0 -4 1 4 0 -4 1 4 0 -4M297 386l1 -4M298 386l0 -4M298 386l1 -4M299 386l0 -4M299 386l1 -4M300 386l0 -4"/>
<path stroke="blue" d="M300 382l1 4 0 -4 1 4 0 -4 1 4 0 -4M303 386l1 -4M304 386l0 -4M304 386l1 -4M305 386l0 -4M305 386l1 -4M306 386l0 -4 1 4 0 -4 1 4 0 -4M308 386l1 -4M309 386l0 -4M309 386l1 -4M310 386l0 -4M310 386l1 -4M311 386l0 -4 1 4 0 -4"/>
<path stroke="blue" d="M312 382l1 4 0 -4 1 3 0 -2M314 385l1 -2M315 385l0 -2M315 385l1 -2M316 385l0 -2M316 385l1 -2M317 385l0 -2 1 2 0 -2 1 2 0 -2 1 2 0 -2M320 385l1 -2M321 385l0 -2M321 385l1 -2M322 385l0 -2M322 385l1 -2M323 385l0 -2 1 2 0 -2"/>
<path stroke="blue" d="M324 383l1 2 0 -2 1 2 0 -2M326 385l1 -2M327 385l0 -2M327 385l1 -2M328 385l0 -2M328 385l1 -2M329 385l0 -2 1 2 0 -2 1 2 0 -2M331 385l1 -2M332 385l0 -2M332 385l1 -2M333 385l0 -2M333 385l1 -2M334 385l0 -2 1 2 0 -2 1 2 0 -2"/>
<path stroke="blue" d="M336 383l1 2 0 -2 1 1 46 0 0 -290M384 97l1 -2M385 97l0 -2M385 97l1 -2M386 97l0 -2 1 2 0 -2 1 2 0 -2 1 2 0 -2M389 97l1 -2M390 97l0 -2M390 97l1 -2M391 96l0 -1M391 96l39 0M430 97l0 -1 46 0M476 392l0 -301M476 383l1 2 0 -2 1 2"/>
<path stroke="blue" d="M478 385l0 -2 1 2 0 -2M479 384l89 0 0 -288 46 0M614 97l0 -1 46 0M660 386l0 -295M660 385l1 -2M661 385l0 -2M661 385l1 -2M662 385l0 -2 1 2 0 -2 1 2 0 -2 1 2 0 -2M665 385l1 -2M666 385l0 -2M666 385l1 -2M667 385l0 -2M667 385l1 -2"/>
<path stroke="blue" d="M668 385l0 -2 1 2 0 -2 1 2 0 -2 1 2 0 -2M671 385l1 -2M672 385l0 -2M672 385l1 -2M673 385l0 -2M673 385l1 -2M674 385l0 -2 1 2 0 -2 1 2 0 -2 1 2 0 -2M677 385l1 -2M678 385l0 -2M678 385l1 -2M679 385l0 -2M679 385l1 -2M680 385l0 -2"/>
<path stroke="blue" d="M680 383l1 2 0 -2 1 2 0 -2 1 2 0 -2M683 385l1 -2M684 385l0 -2M684 385l1 -2M685 385l0 -2 1 2 0 -2 1 2 0 -2 1 2 0 -2M688 385l1 -2M689 385l0 -2M689 384l63 0 0 -290M752 97l1 -2M753 97l0 -2M753 96l45 0M798 97l0 -1 46 0M844 391l0 -299"/>
<path stroke="blue" d="M844 384l92 0 0 -289M936 96l34 0"/>
</svg>
