<?xml version="1.0" standalone="yes"?>
<!DOCTYPE svg PUBLIC "-//W3C//DTD SVG 1.1//EN"
 "http://www.w3.org/Graphics/SVG/1.1/DTD/svg11.dtd">
<svg xmlns="http://www.w3.org/2000/svg" version="1.1"
  width="100%" height="100%" viewBox="0 0 1024 768"
  style="fill: none; font-family: Helvetica;
 font: Helvetica;
">

<!-- Creator: NGspice -->

<rect x="0" y="0" width="1024" height="768" fill="black" stroke="none"/>
<text stroke="none" fill="white" font-size="16" x="358" y="752">
time
</text>
<text stroke="none" fill="white" font-size="16" x="10" y="16">
tran1: * r2r mixed signal
</text>
<path stroke="white" d="M50 704l0 -640"/>
<text stroke="none" fill="white" font-size="16" x="35" y="728">
0.0
</text>
<path stroke="white" stroke-dasharray="1,2" d="M165 704l0 -640"/>
<text stroke="none" fill="white" font-size="16" x="150" y="728">
5.0
</text>
<path stroke="white" stroke-dasharray="1,2" d="M280 704l0 -640"/>
<text stroke="none" fill="white" font-size="16" x="260" y="728">
10.0
</text>
<path stroke="white" stroke-dasharray="1,2" d="M395 704l0 -640"/>
<text stroke="none" fill="white" font-size="16" x="375" y="728">
15.0
</text>
<path stroke="white" stroke-dasharray="1,2" d="M510 704l0 -640"/>
<text stroke="none" fill="white" font-size="16" x="490" y="728">
20.0
</text>
<path stroke="white" stroke-dasharray="1,2" d="M625 704l0 -640"/>
<text stroke="none" fill="white" font-size="16" x="605" y="728">
25.0
</text>
<path stroke="white" stroke-dasharray="1,2" d="M740 704l0 -640"/>
<text stroke="none" fill="white" font-size="16" x="720" y="728">
30.0
</text>
<path stroke="white" stroke-dasharray="1,2" d="M855 704l0 -640"/>
<text stroke="none" fill="white" font-size="16" x="835" y="728">
35.0
</text>
<path stroke="white" stroke-dasharray="1,2" d="M970 704l0 -640"/>
<text stroke="none" fill="white" font-size="16" x="950" y="728">
40.0
</text>
<text stroke="none" fill="white" font-size="16" x="614" y="752">
us
</text>
<path stroke="white" d="M50 704l920 0"/>
<text stroke="none" fill="white" font-size="16" x="18" y="712">
0.0
</text>
<path stroke="white" stroke-dasharray="1,2" d="M50 624l920 0"/>
<text stroke="none" fill="white" font-size="16" x="18" y="632">
0.5
</text>
<path stroke="white" stroke-dasharray="1,2" d="M50 544l920 0"/>
<text stroke="none" fill="white" font-size="16" x="18" y="552">
1.0
</text>
<path stroke="white" stroke-dasharray="1,2" d="M50 464l920 0"/>
<text stroke="none" fill="white" font-size="16" x="18" y="472">
1.5
</text>
<path stroke="white" stroke-dasharray="1,2" d="M50 384l920 0"/>
<text stroke="none" fill="white" font-size="16" x="18" y="392">
2.0
</text>
<path stroke="white" stroke-dasharray="1,2" d="M50 304l920 0"/>
<text stroke="none" fill="white" font-size="16" x="18" y="312">
2.5
</text>
<path stroke="white" stroke-dasharray="1,2" d="M50 224l920 0"/>
<text stroke="none" fill="white" font-size="16" x="18" y="232">
3.0
</text>
<path stroke="white" stroke-dasharray="1,2" d="M50 144l920 0"/>
<text stroke="none" fill="white" font-size="16" x="18" y="152">
3.5
</text>
<path stroke="white" stroke-dasharray="1,2" d="M50 64l920 0"/>
<text stroke="none" fill="white" font-size="16" x="18" y="72">
4.0
</text>
<text stroke="none" fill="white" font-size="16" x="10" y="32">
     
</text>
<path stroke="red" d="M460 23l46 0"/>
<text stroke="none" fill="white" font-size="16" x="516" y="32">
clk
</text>
<path stroke="red" d="M50 416l12 0M62 704l0 -288M62 704l46 0 0 -288 46 0M154 704l0 -288M154 704l46 0 0 -288 46 0M246 704l0 -288M246 704l46 0 0 -288 45 0 1 16M338 704l0 -272M338 704l46 0 0 -288 46 0M430 704l0 -288M430 704l46 0 0 -288 45 0 1 29"/>
<path stroke="red" d="M522 704l0 -259M522 704l46 0 0 -288 45 0 1 15M614 704l0 -273M614 704l46 0 0 -288 45 0 1 29M706 704l0 -259M706 704l46 0 0 -288 45 0 1 29M798 704l0 -259M798 704l46 0 0 -288 46 0M890 704l0 -288M890 704l46 0 0 -288 34 0"/>
<path stroke="blue" d="M50 23l46 0"/>
<text stroke="none" fill="white" font-size="16" x="106" y="32">
"count[0]" + 2
</text>
<path stroke="blue" d="M50 384l104 0M154 385l0 -1 46 0M200 385l0 -296M200 97l1 -2M201 97l0 -2M201 97l1 -2M202 97l0 -2 1 2 0 -2 1 2 0 -2 1 2 0 -2M205 97l1 -2M206 97l0 -2M206 97l1 -2M207 96l0 -1M207 96l39 0M246 97l0 -1 46 0M292 392l0 -300M292 383l1 2"/>
<path stroke="blue" d="M293 385l0 -2 1 2 0 -2M294 385l1 -2M295 385l0 -2M295 385l1 -2M296 385l0 -2M296 385l1 -2M297 385l0 -2 1 2 0 -2 1 2 0 -2 1 2 0 -2M300 385l1 -2M301 385l0 -2M301 385l1 -2M302 385l0 -2M302 385l1 -2M303 385l0 -2 1 2 0 -2 1 2"/>
<path stroke="blue" d="M305 385l0 -2M305 385l1 -2M306 385l0 -2M306 385l1 -2M307 385l0 -2M307 385l1 -2M308 385l0 -2 1 2 0 -2 1 2 0 -2 1 2 0 -2M311 385l1 -2M312 385l0 -2M312 385l1 -2M313 385l0 -2M313 385l1 -2M314 385l0 -2 1 2 0 -2 1 2 0 -2 1 2"/>
<path stroke="blue" d="M317 385l0 -2M317 385l1 -2M318 385l0 -2M318 385l1 -2M319 385l0 -2M319 385l1 -2M320 385l0 -2 1 2 0 -2 1 2 0 -2 1 2 0 -2M323 385l1 -2M324 385l0 -2M324 385l1 -2M325 385l0 -2M325 385l1 -1 58 0M384 388l0 -306M384 95l1 2 0 -2"/>
<path stroke="blue" d="M385 95l1 2 0 -2M386 97l1 -2M387 97l0 -2M387 97l1 -2M388 97l0 -2M388 97l1 -2M389 97l0 -2 1 2 0 -2 1 2 0 -2 1 2 0 -2M392 97l1 -2M393 97l0 -2M393 97l1 -2M394 97l0 -2M394 97l1 -2M395 97l0 -2 1 2 0 -2 1 2 0 -2 1 2 0 -2M398 97l1 -2"/>
<path stroke="blue" d="M399 97l0 -2M399 97l1 -2M400 97l0 -2 1 2 0 -2 1 2 0 -2 1 2 0 -2M403 97l1 -2M404 97l0 -2M404 97l1 -2M405 97l0 -2M405 97l1 -2M406 97l0 -2 1 2 0 -2 1 2 0 -2 1 2 0 -2M409 97l1 -2M410 97l0 -2M410 97l1 -2M411 97l0 -2M411 97l1 -2"/>
<path stroke="blue" d="M412 97l0 -2 1 2 0 -2 1 2 0 -2 1 2 0 -2M415 97l1 -2M416 97l0 -2M416 97l1 -2M417 97l0 -2M417 97l1 -2M418 97l0 -2 1 2 0 -2 1 2 0 -2 1 2 0 -2M421 97l1 -2M422 97l0 -2M422 97l1 -2M423 97l0 -2 1 2 0 -2 1 2 0 -2 1 1 4 0M430 97l0 -1"/>
<path stroke="blue" d="M430 96l46 0M476 391l0 -299M476 385l1 -2M477 385l0 -2 1 2 0 -2 1 2 0 -2M479 385l1 -2M480 385l0 -2M480 385l1 -2M481 385l0 -2M481 385l1 -2M482 385l0 -2 1 2 0 -2 1 2 0 -2 1 2 0 -2M485 385l1 -2M486 385l0 -2M486 385l1 -2M487 385l0 -2"/>
<path stroke="blue" d="M487 385l1 -2M488 385l0 -2 1 2 0 -2 1 2 0 -2 1 2 0 -2M491 385l1 -2M492 385l0 -2M492 385l1 -2M493 385l0 -2M493 385l1 -2M494 385l0 -2 1 2 0 -2M495 384l73 0M568 388l0 -309M568 95l1 2 0 -2 1 2 0 -2M570 97l1 -2M571 97l0 -2M571 97l1 -2"/>
<path stroke="blue" d="M572 97l0 -2M572 97l1 -2M573 97l0 -2 1 2 0 -2 1 2 0 -2 1 2 0 -2M576 97l1 -2M577 97l0 -2M577 97l1 -2M578 97l0 -2M578 97l1 -2M579 97l0 -2 1 2 0 -2 1 2 0 -2 1 2 0 -2M582 97l1 -2M583 97l0 -2M583 97l1 -2M584 97l0 -2 1 2 0 -2"/>
<path stroke="blue" d="M585 95l1 2 0 -2 1 2 0 -2M587 97l1 -2M588 97l0 -2M588 97l1 -2M589 97l0 -2M589 97l1 -2M590 97l0 -2 1 2 0 -2 1 2 0 -2 1 2 0 -2M593 97l1 -2M594 97l0 -2M594 97l1 -2M595 97l0 -2M595 97l1 -2M596 97l0 -2 1 2 0 -2 1 1 16 0M614 97l0 -1"/>
<path stroke="blue" d="M614 96l46 0M660 392l0 -300M660 385l1 -2M661 385l0 -2 1 2 0 -2 1 2 0 -2 1 2 0 -2M664 385l1 -2M665 385l0 -2M665 385l1 -2M666 385l0 -2M666 385l1 -2M667 385l0 -2 1 2 0 -2 1 2 0 -2 1 2 0 -2M670 385l1 -2M671 385l0 -2M671 385l1 -2"/>
<path stroke="blue" d="M672 385l0 -2M672 385l1 -2M673 385l0 -2 1 2 0 -2 1 2 0 -2 1 2 0 -2M676 385l1 -2M677 385l0 -2M677 385l1 -2M678 385l0 -2M678 385l1 -2M679 385l0 -2 1 2 0 -2 1 2 0 -2M681 385l1 -2M682 385l0 -2M682 385l1 -2M683 385l0 -2M683 385l1 -2"/>
<path stroke="blue" d="M684 385l0 -2 1 2 0 -2 1 2 0 -2 1 2 0 -2M687 385l1 -2M688 385l0 -2M688 385l1 -2M689 385l0 -2M689 385l1 -2M690 385l0 -2 1 2 0 -2 1 2 0 -2 1 2 0 -2M693 385l1 -2M694 385l0 -2M694 385l1 -2M695 385l0 -2M695 385l1 -2M696 385l0 -2"/>
<path stroke="blue" d="M696 383l1 2 0 -2 1 2 0 -2 1 2 0 -2M699 385l1 -2M700 385l0 -2M700 385l1 -2M701 385l0 -2M701 385l1 -2M702 385l0 -2 1 2 0 -2 1 2 0 -2M704 385l1 -2M705 385l0 -2 1 1 46 0M752 388l0 -305M752 95l1 2 0 -2 1 2 0 -2M754 97l1 -2"/>
<path stroke="blue" d="M755 97l0 -2M755 97l1 -2M756 97l0 -2M756 97l1 -2M757 97l0 -2 1 2 0 -2 1 2 0 -2 1 2 0 -2M760 97l1 -2M761 97l0 -2M761 97l1 -2M762 97l0 -2M762 97l1 -2M763 97l0 -2 1 2 0 -2 1 2 0 -2M765 97l1 -2M766 97l0 -2M766 97l1 -2M767 97l0 -2"/>
<path stroke="blue" d="M767 97l1 -2M768 97l0 -2 1 2 0 -2 1 2 0 -2 1 2 0 -2M771 97l1 -2M772 97l0 -2M772 97l1 -2M773 97l0 -2M773 97l1 -2M774 97l0 -2 1 2 0 -2 1 2 0 -2 1 2 0 -2M777 97l1 -2M778 97l0 -2M778 97l1 -2M779 97l0 -2M779 97l1 -2M780 97l0 -2"/>
<path stroke="blue" d="M780 95l1 2 0 -2 1 2 0 -2 1 2 0 -2M783 97l1 -2M784 97l0 -2M784 97l1 -2M785 97l0 -2M785 97l1 -2M786 97l0 -2 1 2 0 -2 1 2 0 -2M788 96l10 0M798 97l0 -1 46 0M844 390l0 -299M844 384l92 0M936 388l0 -309M936 95l1 2 0 -2 1 2 0 -2"/>
<path stroke="blue" d="M938 97l1 -2M939 97l0 -2M939 97l1 -2M940 97l0 -2M940 97l1 -2M941 97l0 -2 1 2 0 -2 1 2 0 -2M943 97l1 -2M944 97l0 -2M944 97l1 -2M945 97l0 -2M945 97l1 -2M946 97l0 -2 1 2 0 -2 1 2 0 -2 1 2 0 -2M949 97l1 -2M950 97l0 -2M950 97l1 -2"/>
<path stroke="blue" d="M951 97l0 -2M951 97l1 -2M952 97l0 -2 1 2 0 -2 1 2 0 -2 1 2 0 -2M955 97l1 -2M956 97l0 -2M956 97l1 -2M957 97l0 -2M957 97l1 -2M958 97l0 -2 1 2 0 -2 1 2 0 -2 1 2 0 -2M961 97l1 -2M962 97l0 -2M962 97l1 -2M963 97l0 -2M963 97l1 -2"/>
<path stroke="blue" d="M964 97l0 -2 1 2 0 -2 1 1 4 0"/>
</svg>
