<?xml version="1.0" standalone="yes"?>
<!DOCTYPE svg PUBLIC "-//W3C//DTD SVG 1.1//EN"
 "http://www.w3.org/Graphics/SVG/1.1/DTD/svg11.dtd">
<svg xmlns="http://www.w3.org/2000/svg" version="1.1"
  width="100%" height="100%" viewBox="0 0 1024 768"
  style="fill: none; font-family: Helvetica;
 font: Helvetica;
">

<!-- Creator: NGspice -->

<rect x="0" y="0" width="1024" height="768" fill="black" stroke="none"/>
<text stroke="none" fill="white" font-size="16" x="358" y="752">
time
</text>
<text stroke="none" fill="white" font-size="16" x="10" y="16">
tran1: * r2r mixed signal
</text>
<path stroke="white" d="M50 704l0 -640"/>
<text stroke="none" fill="white" font-size="16" x="35" y="728">
0.0
</text>
<path stroke="white" stroke-dasharray="1,2" d="M165 704l0 -640"/>
<text stroke="none" fill="white" font-size="16" x="150" y="728">
5.0
</text>
<path stroke="white" stroke-dasharray="1,2" d="M280 704l0 -640"/>
<text stroke="none" fill="white" font-size="16" x="260" y="728">
10.0
</text>
<path stroke="white" stroke-dasharray="1,2" d="M395 704l0 -640"/>
<text stroke="none" fill="white" font-size="16" x="375" y="728">
15.0
</text>
<path stroke="white" stroke-dasharray="1,2" d="M510 704l0 -640"/>
<text stroke="none" fill="white" font-size="16" x="490" y="728">
20.0
</text>
<path stroke="white" stroke-dasharray="1,2" d="M625 704l0 -640"/>
<text stroke="none" fill="white" font-size="16" x="605" y="728">
25.0
</text>
<path stroke="white" stroke-dasharray="1,2" d="M740 704l0 -640"/>
<text stroke="none" fill="white" font-size="16" x="720" y="728">
30.0
</text>
<path stroke="white" stroke-dasharray="1,2" d="M855 704l0 -640"/>
<text stroke="none" fill="white" font-size="16" x="835" y="728">
35.0
</text>
<path stroke="white" stroke-dasharray="1,2" d="M970 704l0 -640"/>
<text stroke="none" fill="white" font-size="16" x="950" y="728">
40.0
</text>
<text stroke="none" fill="white" font-size="16" x="614" y="752">
us
</text>
<path stroke="white" d="M50 704l920 0"/>
<text stroke="none" fill="white" font-size="16" x="18" y="712">
0.0
</text>
<path stroke="white" stroke-dasharray="1,2" d="M50 624l920 0"/>
<text stroke="none" fill="white" font-size="16" x="18" y="632">
0.5
</text>
<path stroke="white" stroke-dasharray="1,2" d="M50 544l920 0"/>
<text stroke="none" fill="white" font-size="16" x="18" y="552">
1.0
</text>
<path stroke="white" stroke-dasharray="1,2" d="M50 464l920 0"/>
<text stroke="none" fill="white" font-size="16" x="18" y="472">
1.5
</text>
<path stroke="white" stroke-dasharray="1,2" d="M50 384l920 0"/>
<text stroke="none" fill="white" font-size="16" x="18" y="392">
2.0
</text>
<path stroke="white" stroke-dasharray="1,2" d="M50 304l920 0"/>
<text stroke="none" fill="white" font-size="16" x="18" y="312">
2.5
</text>
<path stroke="white" stroke-dasharray="1,2" d="M50 224l920 0"/>
<text stroke="none" fill="white" font-size="16" x="18" y="232">
3.0
</text>
<path stroke="white" stroke-dasharray="1,2" d="M50 144l920 0"/>
<text stroke="none" fill="white" font-size="16" x="18" y="152">
3.5
</text>
<path stroke="white" stroke-dasharray="1,2" d="M50 64l920 0"/>
<text stroke="none" fill="white" font-size="16" x="18" y="72">
4.0
</text>
<text stroke="none" fill="white" font-size="16" x="10" y="32">
     
</text>
<path stroke="red" d="M460 23l46 0"/>
<text stroke="none" fill="white" font-size="16" x="516" y="32">
clk
</text>
<path stroke="red" d="M50 416l12 0M62 704l0 -288M62 704l46 0 0 -288 46 0M154 704l0 -288M154 704l46 0 0 -288 46 0M246 704l0 -288M246 704l46 0 0 -288 45 0 1 51M338 704l0 -237M338 704l46 0 0 -288 46 0M430 704l0 -288M430 704l46 0 0 -288 45 0 1 29"/>
<path stroke="red" d="M522 704l0 -259M522 704l46 0 0 -288 45 0 1 24M614 704l0 -264M614 704l46 0 0 -288 45 0 1 29M706 704l0 -259M706 704l46 0 0 -288 45 0 1 29M798 704l0 -259M798 704l46 0 0 -288 46 0M890 704l0 -288M890 704l46 0 0 -288 34 0"/>
<path stroke="blue" d="M50 23l46 0"/>
<text stroke="none" fill="white" font-size="16" x="106" y="32">
"count[0]" + 2
</text>
<path stroke="blue" d="M50 384l104 0M154 385l0 -1 46 0 0 -308M200 97l1 -2M201 97l0 -2 1 2 0 -2 1 2 0 -2 1 2 0 -2M204 97l1 -2M205 97l0 -2M205 97l1 -2M206 97l0 -2 1 2 0 -2 1 2 0 -2 1 2 0 -2M209 97l1 -2M210 97l0 -2M210 97l1 -2M211 97l0 -2M211 97l1 -2"/>
<path stroke="blue" d="M212 97l0 -2 1 2 0 -2 1 2 0 -2 1 2 0 -2M215 97l1 -2M216 97l0 -2M216 97l1 -2M217 97l0 -2M217 97l1 -2M218 97l0 -2 1 2 0 -2 1 2 0 -2 1 2 0 -2M221 97l1 -2M222 97l0 -2M222 97l1 -2M223 97l0 -2M223 97l1 -2M224 97l0 -2 1 2 0 -2"/>
<path stroke="blue" d="M225 95l1 2 0 -2 1 2 0 -2M227 97l1 -2M228 97l0 -2M228 97l1 -2M229 97l0 -2 1 2 0 -2M230 96l16 0M246 97l0 -1 46 0M292 393l0 -303M292 383l1 2 0 -2M293 385l1 -2M294 385l0 -2M294 385l1 -2M295 385l0 -2 1 2 0 -2 1 2 0 -2 1 2 0 -2"/>
<path stroke="blue" d="M298 385l1 -2M299 385l0 -2M299 385l1 -2M300 385l0 -2M300 385l1 -2M301 385l0 -2 1 2 0 -2 1 2 0 -2 1 2 0 -2M304 385l1 -2M305 385l0 -2M305 385l1 -2M306 385l0 -2M306 385l1 -2M307 385l0 -2 1 2 0 -2 1 2 0 -2 1 2 0 -2M310 385l1 -2"/>
<path stroke="blue" d="M311 385l0 -2M311 385l1 -2M312 385l0 -2M312 385l1 -2M313 385l0 -2 1 2 0 -2 1 2 0 -2 1 2 0 -2M316 385l1 -2M317 385l0 -2M317 385l1 -2M318 385l0 -2 1 2 0 -2 1 2 0 -2 1 2 0 -2M321 385l1 -2M322 385l0 -2M322 385l1 -2M323 385l0 -2"/>
<path stroke="blue" d="M323 385l1 -2M324 385l0 -2 1 2 0 -2 1 2 0 -2 1 2 0 -2M327 385l1 -2M328 385l0 -2M328 385l1 -2M329 385l0 -2M329 385l1 -2M330 385l0 -2 1 2 0 -2 1 2 0 -2 1 2 0 -2M333 385l1 -2M334 385l0 -2M334 385l1 -2M335 385l0 -2M335 385l1 -2"/>
<path stroke="blue" d="M336 385l0 -2 1 2 0 -2M337 385l1 -1 46 0 0 -304M384 95l1 2 0 -2 1 2 0 -2 1 2 0 -2M387 97l1 -2M388 97l0 -2M388 97l1 -2M389 97l0 -2M389 97l1 -2M390 97l0 -2 1 2 0 -2 1 2 0 -2 1 2 0 -2M393 97l1 -2M394 97l0 -2M394 97l1 -2M395 97l0 -2"/>
<path stroke="blue" d="M395 97l1 -2M396 97l0 -2 1 2 0 -2 1 2 0 -2M398 97l1 -2M399 97l0 -2M399 97l1 -2M400 97l0 -2M400 97l1 -2M401 97l0 -2 1 2 0 -2 1 2 0 -2 1 2 0 -2M404 97l1 -2M405 97l0 -2M405 97l1 -2M406 97l0 -2M406 97l1 -2M407 97l0 -2 1 2 0 -2"/>
<path stroke="blue" d="M408 95l1 2 0 -2 1 2 0 -2M410 97l1 -2M411 97l0 -2M411 97l1 -2M412 97l0 -2M412 97l1 -2M413 97l0 -2 1 2 0 -2 1 2 0 -2 1 2 0 -2M416 97l1 -2M417 97l0 -2M417 97l1 -2M418 97l0 -2M418 97l1 -2M419 97l0 -2 1 2 0 -2 1 2 0 -2M421 97l1 -2"/>
<path stroke="blue" d="M422 97l0 -2M422 97l1 -2M423 97l0 -2M423 97l1 -2M424 97l0 -2 1 2 0 -2 1 2 0 -2 1 1 0 -1M427 96l3 0M430 97l0 -1 46 0M476 392l0 -302M476 383l1 2 0 -2 1 2 0 -2 1 2 0 -2M479 385l1 -2M480 385l0 -2M480 385l1 -2M481 385l0 -2M481 385l1 -2"/>
<path stroke="blue" d="M482 385l0 -2 1 2 0 -2 1 2 0 -2 1 2 0 -2M485 385l1 -2M486 385l0 -2M486 385l1 -2M487 385l0 -2M487 385l1 -2M488 385l0 -2 1 2 0 -2 1 2 0 -2 1 2 0 -2M491 385l1 -2M492 385l0 -2M492 385l1 -2M493 385l0 -2 1 2 0 -2 1 2 0 -2 1 2"/>
<path stroke="blue" d="M496 385l0 -2M496 385l1 -2M497 385l0 -2M497 385l1 -2M498 385l0 -2M498 385l1 -2M499 385l0 -2M499 384l69 0 0 -290M568 96l46 0M614 97l0 -1 46 0M660 393l0 -303M660 385l1 -2M661 385l0 -2M661 385l1 -2M662 385l0 -2M662 385l1 -2"/>
<path stroke="blue" d="M663 385l0 -2 1 2 0 -2 1 2 0 -2 1 2 0 -2M666 385l1 -2M667 385l0 -2M667 385l1 -2M668 385l0 -2M668 385l1 -2M669 385l0 -2 1 2 0 -2 1 2 0 -2M671 385l1 -2M672 385l0 -2M672 385l1 -2M673 385l0 -2M673 385l1 -2M674 385l0 -2 1 2"/>
<path stroke="blue" d="M675 385l0 -2 1 2 0 -2 1 2 0 -2M677 385l1 -2M678 385l0 -2M678 385l1 -2M679 385l0 -2M679 385l1 -2M680 385l0 -2 1 2 0 -2 1 2 0 -2 1 2 0 -2M683 385l1 -2M684 385l0 -2M684 385l1 -2M685 385l0 -2M685 385l1 -2M686 385l0 -2 1 2"/>
<path stroke="blue" d="M687 385l0 -2 1 2 0 -2 1 2 0 -2M689 385l1 -2M690 385l0 -2M690 385l1 -2M691 385l0 -2M691 385l1 -2M692 385l0 -2 1 2 0 -2 1 2 0 -2M694 385l1 -2M695 385l0 -2M695 385l1 -2M696 385l0 -2M696 385l1 -2M697 385l0 -2 1 2 0 -2 1 2"/>
<path stroke="blue" d="M699 385l0 -2 1 2 0 -2M700 385l1 -2M701 385l0 -2M701 385l1 -2M702 385l0 -2M702 385l1 -2M703 385l0 -2 1 2 0 -2 1 2 0 -2M705 385l1 -1 46 0 0 -289M752 96l46 0M798 97l0 -1 46 0M844 392l0 -302M844 385l1 -2M845 385l0 -2 1 2 0 -2"/>
<path stroke="blue" d="M846 383l1 2 0 -2M847 385l1 -2M848 385l0 -2M848 385l1 -2M849 385l0 -2M849 385l1 -2M850 385l0 -2 1 2 0 -2 1 2 0 -2 1 2 0 -2M853 385l1 -2M854 385l0 -2M854 385l1 -2M855 385l0 -2M855 385l1 -2M856 385l0 -2 1 2 0 -2 1 1 78 0"/>
<path stroke="blue" d="M936 384l0 -290M936 96l34 0"/>
</svg>
