<?xml version="1.0" standalone="yes"?>
<!DOCTYPE svg PUBLIC "-//W3C//DTD SVG 1.1//EN"
 "http://www.w3.org/Graphics/SVG/1.1/DTD/svg11.dtd">
<svg xmlns="http://www.w3.org/2000/svg" version="1.1"
  width="100%" height="100%" viewBox="0 0 1024 768"
  style="fill: none; font-family: Helvetica;
 font: Helvetica;
">

<!-- Creator: NGspice -->

<rect x="0" y="0" width="1024" height="768" fill="black" stroke="none"/>
<text stroke="none" fill="white" font-size="16" x="358" y="752">
time
</text>
<text stroke="none" fill="white" font-size="16" x="10" y="16">
tran1: * r2r mixed signal
</text>
<path stroke="white" d="M50 704l0 -640"/>
<text stroke="none" fill="white" font-size="16" x="35" y="728">
0.0
</text>
<path stroke="white" stroke-dasharray="1,2" d="M165 704l0 -640"/>
<text stroke="none" fill="white" font-size="16" x="150" y="728">
5.0
</text>
<path stroke="white" stroke-dasharray="1,2" d="M280 704l0 -640"/>
<text stroke="none" fill="white" font-size="16" x="260" y="728">
10.0
</text>
<path stroke="white" stroke-dasharray="1,2" d="M395 704l0 -640"/>
<text stroke="none" fill="white" font-size="16" x="375" y="728">
15.0
</text>
<path stroke="white" stroke-dasharray="1,2" d="M510 704l0 -640"/>
<text stroke="none" fill="white" font-size="16" x="490" y="728">
20.0
</text>
<path stroke="white" stroke-dasharray="1,2" d="M625 704l0 -640"/>
<text stroke="none" fill="white" font-size="16" x="605" y="728">
25.0
</text>
<path stroke="white" stroke-dasharray="1,2" d="M740 704l0 -640"/>
<text stroke="none" fill="white" font-size="16" x="720" y="728">
30.0
</text>
<path stroke="white" stroke-dasharray="1,2" d="M855 704l0 -640"/>
<text stroke="none" fill="white" font-size="16" x="835" y="728">
35.0
</text>
<path stroke="white" stroke-dasharray="1,2" d="M970 704l0 -640"/>
<text stroke="none" fill="white" font-size="16" x="950" y="728">
40.0
</text>
<text stroke="none" fill="white" font-size="16" x="614" y="752">
us
</text>
<path stroke="white" d="M50 704l920 0"/>
<text stroke="none" fill="white" font-size="16" x="18" y="712">
0.0
</text>
<path stroke="white" stroke-dasharray="1,2" d="M50 624l920 0"/>
<text stroke="none" fill="white" font-size="16" x="18" y="632">
0.5
</text>
<path stroke="white" stroke-dasharray="1,2" d="M50 544l920 0"/>
<text stroke="none" fill="white" font-size="16" x="18" y="552">
1.0
</text>
<path stroke="white" stroke-dasharray="1,2" d="M50 464l920 0"/>
<text stroke="none" fill="white" font-size="16" x="18" y="472">
1.5
</text>
<path stroke="white" stroke-dasharray="1,2" d="M50 384l920 0"/>
<text stroke="none" fill="white" font-size="16" x="18" y="392">
2.0
</text>
<path stroke="white" stroke-dasharray="1,2" d="M50 304l920 0"/>
<text stroke="none" fill="white" font-size="16" x="18" y="312">
2.5
</text>
<path stroke="white" stroke-dasharray="1,2" d="M50 224l920 0"/>
<text stroke="none" fill="white" font-size="16" x="18" y="232">
3.0
</text>
<path stroke="white" stroke-dasharray="1,2" d="M50 144l920 0"/>
<text stroke="none" fill="white" font-size="16" x="18" y="152">
3.5
</text>
<path stroke="white" stroke-dasharray="1,2" d="M50 64l920 0"/>
<text stroke="none" fill="white" font-size="16" x="18" y="72">
4.0
</text>
<text stroke="none" fill="white" font-size="16" x="10" y="32">
     
</text>
<path stroke="red" d="M460 23l46 0"/>
<text stroke="none" fill="white" font-size="16" x="516" y="32">
clk
</text>
<path stroke="red" d="M50 416l12 0M62 704l0 -288M62 704l46 0 0 -288 46 0M154 704l0 -288M154 704l46 0 0 -288 46 0M246 704l0 -288M246 704l46 0 0 -288 45 0 1 16M338 704l0 -272M338 704l46 0 0 -288 46 0M430 704l0 -288M430 704l46 0 0 -288 45 0 1 29"/>
<path stroke="red" d="M522 704l0 -259M522 704l46 0 0 -288 45 0 1 71M614 704l0 -217M614 704l46 0 0 -288 45 0 1 29M706 704l0 -259M706 704l46 0 0 -288 45 0 1 29M798 704l0 -259M798 704l46 0 0 -288 46 0M890 704l0 -288M890 704l46 0 0 -288 34 0"/>
<path stroke="blue" d="M50 23l46 0"/>
<text stroke="none" fill="white" font-size="16" x="106" y="32">
"count[0]" + 2
</text>
<path stroke="blue" d="M50 384l104 0 0 -302M154 96l46 0M200 390l0 -296M200 385l1 -2M201 385l0 -2M201 385l1 -2M202 385l0 -2M202 385l1 -2M203 385l0 -2 1 2 0 -2 1 2 0 -2M205 385l1 -2M206 385l0 -2M206 385l1 -2M207 385l0 -2M207 385l1 -2M208 385l0 -2"/>
<path stroke="blue" d="M208 383l1 2 0 -2 1 2 0 -2 1 2 0 -2M211 385l1 -2M212 385l0 -2M212 385l1 -2M213 385l0 -2M213 385l1 -2M214 385l0 -2 1 2 0 -2 1 2 0 -2 1 2 0 -2M217 385l1 -2M218 385l0 -2M218 385l1 -2M219 385l0 -2M219 385l1 -2M220 385l0 -2"/>
<path stroke="blue" d="M220 383l1 2 0 -2 1 2 0 -2 1 2 0 -2M223 385l1 -2M224 385l0 -2M224 385l1 -2M225 385l0 -2M225 385l1 -2M226 385l0 -2 1 2 0 -2 1 2 0 -2M228 385l1 -2M229 385l0 -2M229 385l1 -2M230 385l0 -2M230 385l1 -2M231 385l0 -2 1 2 0 -2"/>
<path stroke="blue" d="M232 383l1 1 59 0 0 -289M292 96l46 0M338 97l0 -1 46 0M384 385l0 -294M384 384l92 0 0 -292M476 96l46 0M522 97l0 -1 46 0M568 389l0 -294M568 385l1 -2M569 385l0 -2M569 385l1 -2M570 385l0 -2M570 385l1 -2M571 385l0 -2 1 2 0 -2"/>
<path stroke="blue" d="M572 383l1 2 0 -2 1 2 0 -2M574 385l1 -2M575 385l0 -2M575 385l1 -2M576 385l0 -2 1 2 0 -2 1 2 0 -2 1 2 0 -2M579 385l1 -2M580 385l0 -2M580 385l1 -2M581 385l0 -2M581 385l1 -2M582 385l0 -2 1 2 0 -2 1 2 0 -2 1 2 0 -2M585 385l1 -2"/>
<path stroke="blue" d="M586 385l0 -2M586 385l1 -2M587 385l0 -2M587 385l1 -2M588 385l0 -2 1 2 0 -2 1 2 0 -2 1 2 0 -2M591 385l1 -2M592 385l0 -2M592 385l1 -2M593 385l0 -2M593 385l1 -2M594 385l0 -2M594 384l19 0 1 1 0 -304M614 96l46 0M660 388l0 -293"/>
<path stroke="blue" d="M660 384l92 0 0 -292M752 96l46 0M798 97l0 -1 46 0M844 389l0 -294M844 385l1 -2M845 385l0 -2M845 385l1 -2M846 385l0 -2M846 385l1 -2M847 385l0 -2 1 2 0 -2 1 2 0 -2 1 2 0 -2M850 385l1 -2M851 385l0 -2M851 385l1 -2M852 385l0 -2"/>
<path stroke="blue" d="M852 383l1 2 0 -2 1 2 0 -2 1 2 0 -2M855 385l1 -2M856 385l0 -2M856 385l1 -2M857 385l0 -2M857 385l1 -2M858 385l0 -2 1 2 0 -2 1 2 0 -2 1 2 0 -2M861 385l1 -2M862 385l0 -2M862 385l1 -2M863 385l0 -2M863 385l1 -2M864 385l0 -2"/>
<path stroke="blue" d="M864 383l1 2 0 -2 1 2 0 -2M866 384l70 0 0 -289M936 96l34 0"/>
</svg>
