<?xml version="1.0" standalone="yes"?>
<!DOCTYPE svg PUBLIC "-//W3C//DTD SVG 1.1//EN"
 "http://www.w3.org/Graphics/SVG/1.1/DTD/svg11.dtd">
<svg xmlns="http://www.w3.org/2000/svg" version="1.1"
  width="100%" height="100%" viewBox="0 0 1024 768"
  style="fill: none; font-family: Helvetica;
 font: Helvetica;
">

<!-- Creator: NGspice -->

<rect x="0" y="0" width="1024" height="768" fill="black" stroke="none"/>
<text stroke="none" fill="white" font-size="16" x="358" y="752">
time
</text>
<text stroke="none" fill="white" font-size="16" x="10" y="16">
tran1: * r2r mixed signal
</text>
<path stroke="white" d="M50 704l0 -640"/>
<text stroke="none" fill="white" font-size="16" x="35" y="728">
0.0
</text>
<path stroke="white" stroke-dasharray="1,2" d="M165 704l0 -640"/>
<text stroke="none" fill="white" font-size="16" x="150" y="728">
5.0
</text>
<path stroke="white" stroke-dasharray="1,2" d="M280 704l0 -640"/>
<text stroke="none" fill="white" font-size="16" x="260" y="728">
10.0
</text>
<path stroke="white" stroke-dasharray="1,2" d="M395 704l0 -640"/>
<text stroke="none" fill="white" font-size="16" x="375" y="728">
15.0
</text>
<path stroke="white" stroke-dasharray="1,2" d="M510 704l0 -640"/>
<text stroke="none" fill="white" font-size="16" x="490" y="728">
20.0
</text>
<path stroke="white" stroke-dasharray="1,2" d="M625 704l0 -640"/>
<text stroke="none" fill="white" font-size="16" x="605" y="728">
25.0
</text>
<path stroke="white" stroke-dasharray="1,2" d="M740 704l0 -640"/>
<text stroke="none" fill="white" font-size="16" x="720" y="728">
30.0
</text>
<path stroke="white" stroke-dasharray="1,2" d="M855 704l0 -640"/>
<text stroke="none" fill="white" font-size="16" x="835" y="728">
35.0
</text>
<path stroke="white" stroke-dasharray="1,2" d="M970 704l0 -640"/>
<text stroke="none" fill="white" font-size="16" x="950" y="728">
40.0
</text>
<text stroke="none" fill="white" font-size="16" x="614" y="752">
us
</text>
<path stroke="white" d="M50 704l920 0"/>
<text stroke="none" fill="white" font-size="16" x="18" y="712">
0.0
</text>
<path stroke="white" stroke-dasharray="1,2" d="M50 624l920 0"/>
<text stroke="none" fill="white" font-size="16" x="18" y="632">
0.5
</text>
<path stroke="white" stroke-dasharray="1,2" d="M50 544l920 0"/>
<text stroke="none" fill="white" font-size="16" x="18" y="552">
1.0
</text>
<path stroke="white" stroke-dasharray="1,2" d="M50 464l920 0"/>
<text stroke="none" fill="white" font-size="16" x="18" y="472">
1.5
</text>
<path stroke="white" stroke-dasharray="1,2" d="M50 384l920 0"/>
<text stroke="none" fill="white" font-size="16" x="18" y="392">
2.0
</text>
<path stroke="white" stroke-dasharray="1,2" d="M50 304l920 0"/>
<text stroke="none" fill="white" font-size="16" x="18" y="312">
2.5
</text>
<path stroke="white" stroke-dasharray="1,2" d="M50 224l920 0"/>
<text stroke="none" fill="white" font-size="16" x="18" y="232">
3.0
</text>
<path stroke="white" stroke-dasharray="1,2" d="M50 144l920 0"/>
<text stroke="none" fill="white" font-size="16" x="18" y="152">
3.5
</text>
<path stroke="white" stroke-dasharray="1,2" d="M50 64l920 0"/>
<text stroke="none" fill="white" font-size="16" x="18" y="72">
4.0
</text>
<text stroke="none" fill="white" font-size="16" x="10" y="32">
     
</text>
<path stroke="red" d="M460 23l46 0"/>
<text stroke="none" fill="white" font-size="16" x="516" y="32">
clk
</text>
<path stroke="red" d="M50 416l12 0M62 704l0 -288M62 704l23 0 0 -288 23 0M108 704l0 -288M108 704l23 0 0 -288 23 0M154 704l0 -288M154 704l23 0 0 -288 23 0M200 704l0 -288M200 704l23 0 0 -288 23 0M246 704l0 -288M246 704l23 0 0 -288 23 0M292 704l0 -288"/>
<path stroke="red" d="M292 704l23 0 0 -288 22 0 1 70M338 704l0 -218M338 704l23 0 0 -288 23 0M384 704l0 -288M384 704l23 0 0 -288 23 0M430 704l0 -288M430 704l23 0 0 -288 22 0 1 29M476 704l0 -259M476 704l23 0 0 -288 23 0M522 704l0 -288M522 704l23 0"/>
<path stroke="red" d="M545 704l0 -288 22 0 1 29M568 704l0 -259M568 704l23 0 0 -288 23 0M614 704l0 -288M614 704l23 0 0 -288 23 0M660 704l0 -288M660 704l23 0 0 -288 22 0 1 29M706 704l0 -259M706 704l23 0 0 -288 23 0M752 704l0 -288M752 704l23 0 0 -288"/>
<path stroke="red" d="M775 416l22 0 1 29M798 704l0 -259M798 704l23 0 0 -288 22 0 1 29M844 704l0 -259M844 704l23 0 0 -288 23 0M890 704l0 -288M890 704l23 0 0 -288 23 0M936 704l0 -288M936 704l23 0 0 -288 11 0"/>
<path stroke="blue" d="M50 23l46 0"/>
<text stroke="none" fill="white" font-size="16" x="106" y="32">
"count[0]" + 2
</text>
<path stroke="blue" d="M50 384l127 0 0 -291M177 96l23 0M200 97l0 -1 23 0M223 393l0 -303M223 383l1 2 0 -2M224 385l1 -2M225 385l0 -2M225 385l1 -2M226 385l0 -2 1 2 0 -2 1 2 0 -2 1 2 0 -2M229 385l1 -2M230 385l0 -2M230 385l1 -2M231 385l0 -2M231 385l1 -2"/>
<path stroke="blue" d="M232 385l0 -2 1 2 0 -2 1 2 0 -2 1 2 0 -2M235 385l1 -2M236 385l0 -2M236 385l1 -2M237 385l0 -2M237 385l1 -2M238 385l0 -2 1 2 0 -2 1 2 0 -2 1 2 0 -2M241 385l1 -2M242 385l0 -2M242 385l1 -2M243 385l0 -2M243 385l1 -2M244 385l0 -2"/>
<path stroke="blue" d="M244 383l1 2 0 -2 1 2 0 -1 23 0M269 388l0 -295M269 97l1 -2M270 97l0 -2 1 2 0 -2 1 2 0 -2 1 2 0 -2M273 97l1 -2M274 97l0 -2M274 97l1 -2M275 97l0 -2M275 97l1 -2M276 97l0 -2 1 2 0 -2 1 2 0 -2 1 2 0 -2M279 97l1 -2M280 97l0 -2"/>
<path stroke="blue" d="M280 97l1 -1 11 0M292 97l0 -1 23 0M315 390l0 -294M315 383l1 2 0 -2 1 2 0 -2 1 2 0 -2M318 385l1 -2M319 385l0 -2M319 385l1 -2M320 385l0 -2M320 385l1 -2M321 385l0 -2 1 2 0 -2 1 2 0 -2M323 385l1 -2M324 385l0 -2M324 385l1 -2"/>
<path stroke="blue" d="M325 385l0 -2M325 385l1 -2M326 385l0 -2 1 2 0 -2 1 2 0 -2 1 2 0 -2M329 385l1 -2M330 385l0 -2M330 385l1 -2M331 385l0 -2M331 385l1 -2M332 385l0 -2 1 2 0 -2 1 2 0 -2 1 2 0 -2M335 385l1 -2M336 385l0 -2M336 385l1 -2M337 385l0 -2"/>
<path stroke="blue" d="M337 383l1 1 0 -304M338 96l23 0M361 394l0 -298M361 385l1 -2M362 385l0 -2M362 385l1 -2M363 385l0 -2M363 385l1 -2M364 385l0 -2 1 2 0 -2 1 2 0 -2 1 2 0 -2M367 385l1 -2M368 385l0 -2M368 385l1 -2M369 385l0 -2M369 385l1 -2M370 385l0 -2"/>
<path stroke="blue" d="M370 383l1 2 0 -2 1 2 0 -2 1 2 0 -2M373 385l1 -2M374 385l0 -2M374 385l1 -2M375 385l0 -2M375 385l1 -2M376 385l0 -2 1 2 0 -2 1 2 0 -2 1 2 0 -2M379 385l1 -2M380 385l0 -2M380 385l1 -2M381 385l0 -2 1 2 0 -2 1 2 0 -2 1 2 0 -1"/>
<path stroke="blue" d="M384 384l23 0M407 388l0 -294M407 96l23 0M430 97l0 -1 23 0M453 388l0 -292M453 383l1 2 0 -2 1 2 0 -2 1 2 0 -2M456 385l1 -2M457 385l0 -2M457 385l1 -2M458 385l0 -2M458 385l1 -2M459 385l0 -2 1 2 0 -2 1 2 0 -2 1 2 0 -2M462 385l1 -2"/>
<path stroke="blue" d="M463 385l0 -2M463 385l1 -2M464 385l0 -2M464 385l1 -2M465 385l0 -2 1 2 0 -2 1 2 0 -2 1 2 0 -2M468 385l1 -2M469 385l0 -2M469 385l1 -2M470 385l0 -2M470 385l1 -2M471 385l0 -2 1 2 0 -2 1 2 0 -2M473 385l1 -2M474 385l0 -2M474 384l25 0"/>
<path stroke="blue" d="M499 386l0 -298M499 97l1 -2M500 97l0 -2 1 2 0 -2 1 2 0 -2 1 2 0 -2M503 96l19 0M522 97l0 -1 23 0M545 391l0 -298M545 385l1 -2M546 385l0 -2M546 385l1 -2M547 385l0 -2 1 2 0 -2 1 2 0 -2 1 2 0 -2M550 385l1 -2M551 385l0 -2M551 385l1 -2"/>
<path stroke="blue" d="M552 385l0 -2M552 385l1 -2M553 385l0 -2 1 2 0 -2 1 2 0 -2 1 2 0 -2M556 385l1 -2M557 385l0 -2M557 385l1 -2M558 385l0 -2M558 385l1 -2M559 385l0 -2 1 2 0 -2 1 2 0 -2 1 2 0 -2M562 385l1 -2M563 385l0 -2M563 385l1 -2M564 385l0 -2"/>
<path stroke="blue" d="M564 385l1 -2M565 385l0 -2 1 2 0 -2 1 2 0 -2 1 1 23 0M591 387l0 -294M591 97l1 -2M592 97l0 -2M592 97l1 -2M593 97l0 -2M593 97l1 -2M594 97l0 -2 1 2 0 -2 1 2 0 -2 1 2 0 -2M597 97l1 -2M598 97l0 -2M598 97l1 -2M599 97l0 -2 1 2"/>
<path stroke="blue" d="M600 97l0 -2M600 96l1 1 0 -1 1 1 0 -1 12 0M614 97l0 -1 23 0M637 388l0 -292M637 384l46 0M683 385l0 -309M683 97l1 -2M684 97l0 -2M684 97l1 -2M685 97l0 -2 1 2 0 -2 1 2 0 -2 1 2 0 -2M688 97l1 -2M689 97l0 -2M689 97l1 -2M690 97l0 -2"/>
<path stroke="blue" d="M690 97l1 -2M691 97l0 -2 1 2 0 -2 1 2 0 -2 1 2 0 -2M694 97l1 -2M695 97l0 -2M695 97l1 -2M696 97l0 -2M696 97l1 -2M697 97l0 -2 1 2 0 -2 1 2 0 -2 1 2 0 -2M700 97l1 -2M701 97l0 -2M701 97l1 -2M702 97l0 -2 1 2 0 -2 1 2 0 -2 1 2"/>
<path stroke="blue" d="M705 97l0 -2M705 96l1 0M706 97l0 -1 23 0M729 393l0 -298M729 383l1 2 0 -2 1 2 0 -2M731 385l1 -2M732 385l0 -2M732 385l1 -2M733 385l0 -2 1 2 0 -2 1 2 0 -2 1 2 0 -2M736 385l1 -2M737 385l0 -2M737 385l1 -2M738 385l0 -2M738 385l1 -2"/>
<path stroke="blue" d="M739 385l0 -2 1 2 0 -2 1 2 0 -2 1 2 0 -2M742 385l1 -2M743 385l0 -2M743 385l1 -2M744 385l0 -2M744 385l1 -2M745 385l0 -2 1 2 0 -2 1 2 0 -2 1 2 0 -2M748 385l1 -2M749 385l0 -2M749 385l1 -2M750 385l0 -2M750 385l1 -2M751 385l0 -2"/>
<path stroke="blue" d="M751 383l1 2 0 -1 23 0M775 385l0 -290 1 2 0 -2 1 2 0 -2 1 2 0 -2M778 97l1 -2M779 97l0 -2M779 97l1 -2M780 96l0 -1M780 96l18 0M798 97l0 -1 23 0M821 389l0 -297M821 384l46 0M867 388l0 -295M867 95l1 2 0 -2M868 97l1 -2M869 97l0 -2"/>
<path stroke="blue" d="M869 96l21 0M890 97l0 -1 23 0M913 385l0 -289M913 384l46 0M959 386l0 -302M959 97l1 -2M960 97l0 -2M960 97l1 -2M961 97l0 -2 1 2 0 -2 1 2 0 -2 1 2 0 -2M964 97l1 -2M965 97l0 -2M965 97l1 -2M966 97l0 -2M966 97l1 -2M967 97l0 -2"/>
<path stroke="blue" d="M967 95l1 2 0 -2 1 2 0 -2M969 97l1 -2M970 97l0 -2"/>
</svg>
