<?xml version="1.0" standalone="yes"?>
<!DOCTYPE svg PUBLIC "-//W3C//DTD SVG 1.1//EN"
 "http://www.w3.org/Graphics/SVG/1.1/DTD/svg11.dtd">
<svg xmlns="http://www.w3.org/2000/svg" version="1.1"
  width="100%" height="100%" viewBox="0 0 1024 768"
  style="fill: none; font-family: Helvetica;
 font: Helvetica;
">

<!-- Creator: NGspice -->

<rect x="0" y="0" width="1024" height="768" fill="black" stroke="none"/>
<text stroke="none" fill="white" font-size="16" x="358" y="752">
time
</text>
<text stroke="none" fill="white" font-size="16" x="10" y="16">
tran1: * r2r mixed signal
</text>
<path stroke="white" d="M50 704l0 -640"/>
<text stroke="none" fill="white" font-size="16" x="35" y="728">
0.0
</text>
<path stroke="white" stroke-dasharray="1,2" d="M165 704l0 -640"/>
<text stroke="none" fill="white" font-size="16" x="150" y="728">
5.0
</text>
<path stroke="white" stroke-dasharray="1,2" d="M280 704l0 -640"/>
<text stroke="none" fill="white" font-size="16" x="260" y="728">
10.0
</text>
<path stroke="white" stroke-dasharray="1,2" d="M395 704l0 -640"/>
<text stroke="none" fill="white" font-size="16" x="375" y="728">
15.0
</text>
<path stroke="white" stroke-dasharray="1,2" d="M510 704l0 -640"/>
<text stroke="none" fill="white" font-size="16" x="490" y="728">
20.0
</text>
<path stroke="white" stroke-dasharray="1,2" d="M625 704l0 -640"/>
<text stroke="none" fill="white" font-size="16" x="605" y="728">
25.0
</text>
<path stroke="white" stroke-dasharray="1,2" d="M740 704l0 -640"/>
<text stroke="none" fill="white" font-size="16" x="720" y="728">
30.0
</text>
<path stroke="white" stroke-dasharray="1,2" d="M855 704l0 -640"/>
<text stroke="none" fill="white" font-size="16" x="835" y="728">
35.0
</text>
<path stroke="white" stroke-dasharray="1,2" d="M970 704l0 -640"/>
<text stroke="none" fill="white" font-size="16" x="950" y="728">
40.0
</text>
<text stroke="none" fill="white" font-size="16" x="614" y="752">
us
</text>
<path stroke="white" d="M50 704l920 0"/>
<text stroke="none" fill="white" font-size="16" x="18" y="712">
0.0
</text>
<path stroke="white" stroke-dasharray="1,2" d="M50 624l920 0"/>
<text stroke="none" fill="white" font-size="16" x="18" y="632">
0.5
</text>
<path stroke="white" stroke-dasharray="1,2" d="M50 544l920 0"/>
<text stroke="none" fill="white" font-size="16" x="18" y="552">
1.0
</text>
<path stroke="white" stroke-dasharray="1,2" d="M50 464l920 0"/>
<text stroke="none" fill="white" font-size="16" x="18" y="472">
1.5
</text>
<path stroke="white" stroke-dasharray="1,2" d="M50 384l920 0"/>
<text stroke="none" fill="white" font-size="16" x="18" y="392">
2.0
</text>
<path stroke="white" stroke-dasharray="1,2" d="M50 304l920 0"/>
<text stroke="none" fill="white" font-size="16" x="18" y="312">
2.5
</text>
<path stroke="white" stroke-dasharray="1,2" d="M50 224l920 0"/>
<text stroke="none" fill="white" font-size="16" x="18" y="232">
3.0
</text>
<path stroke="white" stroke-dasharray="1,2" d="M50 144l920 0"/>
<text stroke="none" fill="white" font-size="16" x="18" y="152">
3.5
</text>
<path stroke="white" stroke-dasharray="1,2" d="M50 64l920 0"/>
<text stroke="none" fill="white" font-size="16" x="18" y="72">
4.0
</text>
<text stroke="none" fill="white" font-size="16" x="10" y="32">
     
</text>
<path stroke="red" d="M460 23l46 0"/>
<text stroke="none" fill="white" font-size="16" x="516" y="32">
clk
</text>
<path stroke="red" d="M50 416l12 0M62 704l0 -288M62 704l23 0 0 -288 23 0M108 704l0 -288M108 704l23 0 0 -288 23 0M154 704l0 -288M154 704l23 0 0 -288 23 0M200 704l0 -288M200 704l23 0 0 -288 23 0M246 704l0 -288M246 704l23 0 0 -288 23 0M292 704l0 -288"/>
<path stroke="red" d="M292 704l23 0 0 -288 22 0 1 12M338 704l0 -276M338 704l23 0 0 -288 23 0M384 704l0 -288M384 704l23 0 0 -288 23 0M430 704l0 -288M430 704l23 0 0 -288 22 0 1 29M476 704l0 -259M476 704l23 0 0 -288 23 0M522 704l0 -288M522 704l23 0"/>
<path stroke="red" d="M545 704l0 -288 22 0 1 29M568 704l0 -259M568 704l23 0 0 -288 23 0M614 704l0 -288M614 704l23 0 0 -288 23 0M660 704l0 -288M660 704l23 0 0 -288 22 0 1 29M706 704l0 -259M706 704l23 0 0 -288 23 0M752 704l0 -288M752 704l23 0 0 -288"/>
<path stroke="red" d="M775 416l22 0 1 29M798 704l0 -259M798 704l23 0 0 -288 22 0 1 29M844 704l0 -259M844 704l23 0 0 -288 23 0M890 704l0 -288M890 704l23 0 0 -288 23 0M936 704l0 -288M936 704l23 0 0 -288 11 0"/>
<path stroke="blue" d="M50 23l46 0"/>
<text stroke="none" fill="white" font-size="16" x="106" y="32">
"count[0]" + 2
</text>
<path stroke="blue" d="M50 384l35 0M85 386l0 -296M85 96l23 0M108 97l0 -1 23 0M131 394l0 -303M131 381l1 6 0 -6 1 6 0 -6 1 6 0 -6M134 387l1 -6M135 387l0 -6M135 387l1 -6M136 387l0 -6M136 387l1 -6M137 387l0 -6 1 6 0 -6 1 5 0 -4 1 4 0 -4M140 386l1 -4"/>
<path stroke="blue" d="M141 386l0 -4M141 386l1 -4M142 386l0 -4M142 384l35 0M177 386l0 -296M177 96l23 0M200 97l0 -1 23 0M223 384l0 -293M223 384l46 0M269 386l0 -295M269 95l1 2 0 -2M270 97l1 -2M271 97l0 -2M271 97l1 -2M272 97l0 -2M272 97l1 -2M273 97l0 -2"/>
<path stroke="blue" d="M273 95l1 2 0 -2 1 2 0 -2 1 2 0 -2M276 97l1 -2M277 97l0 -2M277 97l1 -2M278 97l0 -2 1 2 0 -2 1 2 0 -2 1 2 0 -2M281 97l1 -2M282 97l0 -2M282 97l1 -2M283 97l0 -2M283 97l1 -2M284 97l0 -2 1 2 0 -2 1 2 0 -2 1 2 0 -2M287 97l1 -2"/>
<path stroke="blue" d="M288 97l0 -2M288 97l1 -2M289 97l0 -2M289 97l1 -2M290 97l0 -2 1 2 0 -2 1 2 0 -1 23 0M315 395l0 -299M315 385l1 -2M316 385l0 -2M316 385l1 -2M317 385l0 -2 1 2 0 -2 1 2 0 -2 1 2 0 -2M320 385l1 -2M321 385l0 -2M321 385l1 -2M322 385l0 -2"/>
<path stroke="blue" d="M322 385l1 -2M323 385l0 -2 1 2 0 -2 1 2 0 -2 1 2 0 -2M326 385l1 -2M327 385l0 -2M327 385l1 -2M328 385l0 -2M328 385l1 -2M329 385l0 -2 1 2 0 -2 1 2 0 -2 1 2 0 -2M332 385l1 -2M333 385l0 -2M333 385l1 -2M334 385l0 -2 1 2 0 -2"/>
<path stroke="blue" d="M335 383l1 2 0 -2 1 2 0 -2 1 1 23 0M361 386l0 -296M361 96l23 0M384 97l0 -1 23 0M407 396l0 -305M407 386l1 -4M408 386l0 -4M408 386l1 -4M409 386l0 -4 1 4 0 -4 1 4 0 -4 1 4 0 -4M412 386l1 -4M413 386l0 -4M413 386l1 -4M414 386l0 -4"/>
<path stroke="blue" d="M414 386l1 -4M415 386l0 -4 1 4 0 -4 1 4 0 -4 1 4 0 -4M418 386l1 -4M419 386l0 -4M419 386l1 -4M420 386l0 -4M420 386l1 -4M421 386l0 -4 1 4 0 -4 1 4 0 -4 1 4 0 -4M424 386l1 -4M425 386l0 -4M425 386l1 -4M426 386l0 -4M426 386l1 -4"/>
<path stroke="blue" d="M427 386l0 -4M427 383l1 2 0 -2 1 2 0 -2 1 2 0 -1 23 0M453 385l0 -304M453 95l1 2 0 -2 1 2 0 -2 1 2 0 -2M456 97l1 -2M457 97l0 -2M457 97l1 -2M458 97l0 -2 1 2 0 -2 1 2 0 -2 1 2 0 -2M461 97l1 -2M462 97l0 -2M462 97l1 -2M463 97l0 -2"/>
<path stroke="blue" d="M463 97l1 -2M464 97l0 -2 1 2 0 -2 1 2 0 -2 1 2 0 -2M467 97l1 -2M468 97l0 -2M468 97l1 -2M469 97l0 -2M469 97l1 -2M470 97l0 -2 1 2 0 -2 1 2 0 -2 1 2 0 -2M473 97l1 -2M474 97l0 -2M474 97l1 -2M475 97l0 -2 1 1M476 97l0 -1 23 0"/>
<path stroke="blue" d="M499 392l0 -296M499 383l1 2 0 -2 1 2 0 -2M501 385l1 -2M502 385l0 -2M502 385l1 -2M503 385l0 -2M503 385l1 -2M504 385l0 -2 1 2 0 -2 1 2 0 -2 1 2 0 -2M507 385l1 -2M508 385l0 -2M508 385l1 -2M509 385l0 -2M509 385l1 -2M510 385l0 -2"/>
<path stroke="blue" d="M510 383l1 2 0 -2 1 2 0 -2M512 385l1 -2M513 385l0 -2M513 385l1 -2M514 385l0 -2M514 385l1 -2M515 385l0 -2 1 2 0 -2 1 2 0 -2 1 2 0 -2M518 385l1 -2M519 385l0 -2M519 385l1 -2M520 385l0 -2M520 385l1 -2M521 385l0 -2 1 1 23 0"/>
<path stroke="blue" d="M545 387l0 -292M545 96l23 0M568 97l0 -1 23 0M591 397l0 -305M591 386l1 -4M592 386l0 -4M592 386l1 -4M593 386l0 -4 1 4 0 -4 1 4 0 -4 1 4 0 -4M596 386l1 -4M597 386l0 -4M597 386l1 -4M598 386l0 -4M598 386l1 -4M599 386l0 -4 1 4"/>
<path stroke="blue" d="M600 386l0 -4 1 4 0 -4 1 4 0 -4M602 386l1 -4M603 386l0 -4M603 386l1 -4M604 386l0 -4M604 386l1 -4M605 386l0 -4 1 4 0 -4 1 4 0 -4 1 4 0 -4M608 386l1 -4M609 386l0 -4M609 386l1 -4M610 386l0 -4 1 4 0 -4 1 4 0 -4 1 4 0 -4M613 385l1 -2"/>
<path stroke="blue" d="M614 384l0 -1M614 384l23 0M637 385l0 -307M637 97l1 -2M638 97l0 -2M638 97l1 -2M639 97l0 -2 1 2 0 -2 1 2 0 -2 1 2 0 -2M642 97l1 -2M643 97l0 -2M643 97l1 -2M644 97l0 -2M644 97l1 -2M645 97l0 -2 1 2 0 -2 1 2 0 -2 1 2 0 -2M648 97l1 -2"/>
<path stroke="blue" d="M649 97l0 -2M649 97l1 -2M650 97l0 -2M650 97l1 -2M651 97l0 -2 1 2 0 -2 1 2 0 -2M653 97l1 -2M654 97l0 -2M654 97l1 -2M655 97l0 -2M655 97l1 -2M656 97l0 -2 1 2 0 -2 1 2 0 -2 1 2 0 -2M659 97l1 -2M660 97l0 -2M660 96l23 0M683 392l0 -296"/>
<path stroke="blue" d="M683 385l1 -2M684 385l0 -2M684 385l1 -2M685 385l0 -2 1 2 0 -2 1 2 0 -2 1 2 0 -2M688 385l1 -2M689 385l0 -2M689 385l1 -2M690 385l0 -2 1 2 0 -2 1 2 0 -2 1 2 0 -2M693 385l1 -2M694 385l0 -2M694 385l1 -2M695 385l0 -2M695 385l1 -2"/>
<path stroke="blue" d="M696 385l0 -2 1 2 0 -2 1 2 0 -2 1 2 0 -2M699 385l1 -2M700 385l0 -2M700 385l1 -2M701 385l0 -2M701 385l1 -2M702 385l0 -2 1 2 0 -2 1 2 0 -2 1 2 0 -2 1 1 23 0M729 385l0 -309M729 95l1 2 0 -2M730 97l1 -2M731 97l0 -2M731 97l1 -2"/>
<path stroke="blue" d="M732 97l0 -2M732 97l1 -2M733 97l0 -2 1 2 0 -2 1 2 0 -2 1 2 0 -2M736 97l1 -2M737 97l0 -2M737 97l1 -2M738 97l0 -2M738 97l1 -2M739 97l0 -2 1 2 0 -2 1 2 0 -2 1 2 0 -2M742 97l1 -2M743 97l0 -2M743 97l1 -2M744 97l0 -2M744 97l1 -2"/>
<path stroke="blue" d="M745 97l0 -2 1 2 0 -2 1 2 0 -2M747 96l5 0M752 97l0 -1 23 0M775 392l0 -296M775 385l1 -2M776 385l0 -2M776 385l1 -2M777 385l0 -2M777 385l1 -2M778 385l0 -2 1 2 0 -2 1 2 0 -2 1 2 0 -2M781 385l1 -2M782 385l0 -2M782 385l1 -2M783 385l0 -2"/>
<path stroke="blue" d="M783 385l1 -2M784 385l0 -2 1 2 0 -2 1 2 0 -2 1 2 0 -2M787 385l1 -2M788 385l0 -2M788 385l1 -2M789 385l0 -2 1 2 0 -2 1 2 0 -2 1 2 0 -2M792 385l1 -2M793 385l0 -2M793 385l1 -2M794 385l0 -2M794 385l1 -2M795 385l0 -2 1 2 0 -2"/>
<path stroke="blue" d="M796 383l1 2 0 -2M797 385l1 -1 23 0M821 387l0 -293M821 97l1 -2M822 97l0 -2M822 97l1 -2M823 97l0 -2 1 2 0 -2 1 2 0 -2 1 2 0 -2M826 97l1 -2M827 97l0 -2M827 97l1 -2M828 97l0 -2M828 97l1 -2M829 97l0 -2 1 2 0 -2 1 2 0 -2 1 2"/>
<path stroke="blue" d="M832 97l0 -2M832 97l1 -2M833 97l0 -2M833 97l1 -2M834 97l0 -2 1 2 0 -2 1 2 0 -2 1 2 0 -2M837 97l1 -2M838 97l0 -2M838 97l1 -2M839 97l0 -2M839 97l1 -2M840 97l0 -2 1 2 0 -2 1 2 0 -2 1 2 0 -2M843 96l1 0M844 97l0 -1 23 0M867 386l0 -293"/>
<path stroke="blue" d="M867 384l46 0M913 386l0 -300M913 95l1 2 0 -2M914 97l1 -2M915 97l0 -2M915 97l1 -2M916 97l0 -2M916 97l1 -2M917 97l0 -2 1 2 0 -2 1 2 0 -2 1 2 0 -2M920 97l1 -2M921 97l0 -2M921 97l1 -2M922 97l0 -2M922 97l1 -2M923 97l0 -2 1 2"/>
<path stroke="blue" d="M924 97l0 -2 1 2 0 -2 1 2 0 -2M926 97l1 -2M927 97l0 -2M927 97l1 -2M928 97l0 -2M928 97l1 -2M929 97l0 -2 1 2 0 -2 1 2 0 -2 1 2 0 -2M932 97l1 -2M933 97l0 -2M933 97l1 -2M934 96l0 -1M934 96l2 0M936 97l0 -1 23 0M959 396l0 -304"/>
<path stroke="blue" d="M959 382l1 4 0 -4M960 386l1 -4M961 386l0 -4M961 386l1 -4M962 386l0 -4M962 386l1 -4M963 386l0 -4 1 4 0 -4 1 4 0 -4 1 4 0 -4M966 386l1 -4M967 386l0 -4M967 386l1 -4M968 386l0 -4M968 386l1 -4M969 386l0 -4 1 4 0 -4"/>
</svg>
