<?xml version="1.0" standalone="yes"?>
<!DOCTYPE svg PUBLIC "-//W3C//DTD SVG 1.1//EN"
 "http://www.w3.org/Graphics/SVG/1.1/DTD/svg11.dtd">
<svg xmlns="http://www.w3.org/2000/svg" version="1.1"
  width="100%" height="100%" viewBox="0 0 1024 768"
  style="fill: none; font-family: Helvetica;
 font: Helvetica;
">

<!-- Creator: NGspice -->

<rect x="0" y="0" width="1024" height="768" fill="black" stroke="none"/>
<text stroke="none" fill="white" font-size="16" x="358" y="752">
time
</text>
<text stroke="none" fill="white" font-size="16" x="10" y="16">
tran1: * r2r mixed signal
</text>
<path stroke="white" d="M50 704l0 -640"/>
<text stroke="none" fill="white" font-size="16" x="35" y="728">
0.0
</text>
<path stroke="white" stroke-dasharray="1,2" d="M165 704l0 -640"/>
<text stroke="none" fill="white" font-size="16" x="150" y="728">
5.0
</text>
<path stroke="white" stroke-dasharray="1,2" d="M280 704l0 -640"/>
<text stroke="none" fill="white" font-size="16" x="260" y="728">
10.0
</text>
<path stroke="white" stroke-dasharray="1,2" d="M395 704l0 -640"/>
<text stroke="none" fill="white" font-size="16" x="375" y="728">
15.0
</text>
<path stroke="white" stroke-dasharray="1,2" d="M510 704l0 -640"/>
<text stroke="none" fill="white" font-size="16" x="490" y="728">
20.0
</text>
<path stroke="white" stroke-dasharray="1,2" d="M625 704l0 -640"/>
<text stroke="none" fill="white" font-size="16" x="605" y="728">
25.0
</text>
<path stroke="white" stroke-dasharray="1,2" d="M740 704l0 -640"/>
<text stroke="none" fill="white" font-size="16" x="720" y="728">
30.0
</text>
<path stroke="white" stroke-dasharray="1,2" d="M855 704l0 -640"/>
<text stroke="none" fill="white" font-size="16" x="835" y="728">
35.0
</text>
<path stroke="white" stroke-dasharray="1,2" d="M970 704l0 -640"/>
<text stroke="none" fill="white" font-size="16" x="950" y="728">
40.0
</text>
<text stroke="none" fill="white" font-size="16" x="614" y="752">
us
</text>
<path stroke="white" d="M50 704l920 0"/>
<text stroke="none" fill="white" font-size="16" x="18" y="712">
0.0
</text>
<path stroke="white" stroke-dasharray="1,2" d="M50 624l920 0"/>
<text stroke="none" fill="white" font-size="16" x="18" y="632">
0.5
</text>
<path stroke="white" stroke-dasharray="1,2" d="M50 544l920 0"/>
<text stroke="none" fill="white" font-size="16" x="18" y="552">
1.0
</text>
<path stroke="white" stroke-dasharray="1,2" d="M50 464l920 0"/>
<text stroke="none" fill="white" font-size="16" x="18" y="472">
1.5
</text>
<path stroke="white" stroke-dasharray="1,2" d="M50 384l920 0"/>
<text stroke="none" fill="white" font-size="16" x="18" y="392">
2.0
</text>
<path stroke="white" stroke-dasharray="1,2" d="M50 304l920 0"/>
<text stroke="none" fill="white" font-size="16" x="18" y="312">
2.5
</text>
<path stroke="white" stroke-dasharray="1,2" d="M50 224l920 0"/>
<text stroke="none" fill="white" font-size="16" x="18" y="232">
3.0
</text>
<path stroke="white" stroke-dasharray="1,2" d="M50 144l920 0"/>
<text stroke="none" fill="white" font-size="16" x="18" y="152">
3.5
</text>
<path stroke="white" stroke-dasharray="1,2" d="M50 64l920 0"/>
<text stroke="none" fill="white" font-size="16" x="18" y="72">
4.0
</text>
<text stroke="none" fill="white" font-size="16" x="10" y="32">
     
</text>
<path stroke="red" d="M460 23l46 0"/>
<text stroke="none" fill="white" font-size="16" x="516" y="32">
clk
</text>
<path stroke="red" d="M50 416l12 0M62 704l0 -288M62 704l23 0 0 -288 23 0M108 704l0 -288M108 704l23 0 0 -288 23 0M154 704l0 -288M154 704l23 0 0 -288 23 0M200 704l0 -288M200 704l23 0 0 -288 23 0M246 704l0 -288M246 704l23 0 0 -288 23 0M292 704l0 -288"/>
<path stroke="red" d="M292 704l23 0 0 -288 22 0 1 18M338 704l0 -270M338 704l23 0 0 -288 23 0M384 704l0 -288M384 704l23 0 0 -288 23 0M430 704l0 -288M430 704l23 0 0 -288 22 0 1 29M476 704l0 -259M476 704l23 0 0 -288 23 0M522 704l0 -288M522 704l23 0"/>
<path stroke="red" d="M545 704l0 -288 22 0 1 29M568 704l0 -259M568 704l23 0 0 -288 23 0M614 704l0 -288M614 704l23 0 0 -288 23 0M660 704l0 -288M660 704l23 0 0 -288 22 0 1 29M706 704l0 -259M706 704l23 0 0 -288 23 0M752 704l0 -288M752 704l23 0 0 -288"/>
<path stroke="red" d="M775 416l22 0 1 29M798 704l0 -259M798 704l23 0 0 -288 22 0 1 29M844 704l0 -259M844 704l23 0 0 -288 23 0M890 704l0 -288M890 704l23 0 0 -288 23 0M936 704l0 -288M936 704l23 0 0 -288 11 0"/>
<path stroke="blue" d="M50 23l46 0"/>
<text stroke="none" fill="white" font-size="16" x="106" y="32">
"count[0]" + 2
</text>
<path stroke="blue" d="M50 384l127 0M177 385l0 -311M177 95l1 2 0 -2M178 97l1 -2M179 97l0 -2M179 97l1 -2M180 97l0 -2M180 97l1 -2M181 97l0 -2 1 2 0 -2 1 2 0 -2 1 2 0 -2M184 97l1 -2M185 97l0 -2M185 97l1 -2M186 97l0 -2M186 97l1 -2M187 97l0 -2 1 2"/>
<path stroke="blue" d="M188 97l0 -2 1 2 0 -2M189 97l1 -2M190 97l0 -2M190 97l1 -2M191 97l0 -2M191 97l1 -2M192 97l0 -2 1 2 0 -2 1 2 0 -2 1 2 0 -2M195 97l1 -2M196 97l0 -2M196 97l1 -2M197 97l0 -2M197 97l1 -2M198 97l0 -2 1 2 0 -2 1 1M200 97l0 -1 23 0"/>
<path stroke="blue" d="M223 385l0 -297M223 384l46 0M269 387l0 -304M269 95l1 2 0 -2 1 2 0 -2M271 97l1 -2M272 97l0 -2M272 97l1 -2M273 97l0 -2M273 97l1 -2M274 97l0 -2 1 2 0 -2 1 2 0 -2 1 2 0 -2M277 97l1 -2M278 97l0 -2M278 97l1 -2M279 97l0 -2M279 97l1 -2"/>
<path stroke="blue" d="M280 97l0 -2 1 2 0 -2 1 2 0 -2 1 2 0 -2M283 97l1 -2M284 97l0 -2M284 97l1 -2M285 97l0 -2M285 97l1 -2M286 97l0 -2 1 2 0 -2 1 1 0 -1M288 96l4 0M292 97l0 -1 23 0M315 393l0 -297M315 385l1 -2M316 385l0 -2M316 385l1 -2M317 385l0 -2"/>
<path stroke="blue" d="M317 383l1 2 0 -2 1 2 0 -2 1 2 0 -2M320 385l1 -2M321 385l0 -2M321 385l1 -2M322 385l0 -2M322 385l1 -2M323 385l0 -2 1 2 0 -2 1 2 0 -2 1 2 0 -2M326 385l1 -2M327 385l0 -2M327 385l1 -2M328 385l0 -2 1 2 0 -2 1 2 0 -2 1 2 0 -2"/>
<path stroke="blue" d="M331 385l1 -2M332 385l0 -2M332 385l1 -2M333 385l0 -2M333 385l1 -2M334 385l0 -2 1 2 0 -2 1 2 0 -2 1 2 0 -2 1 1 23 0 0 -300M361 96l23 0M384 97l0 -1 23 0M407 393l0 -302M407 385l1 -2M408 385l0 -2 1 2 0 -2 1 2 0 -2 1 2 0 -2"/>
<path stroke="blue" d="M411 385l1 -2M412 385l0 -2M412 385l1 -2M413 385l0 -2M413 385l1 -2M414 385l0 -2 1 2 0 -2 1 2 0 -2M416 385l1 -2M417 385l0 -2M417 385l1 -2M418 385l0 -2M418 385l1 -2M419 385l0 -2 1 2 0 -2 1 2 0 -2 1 2 0 -2M422 385l1 -2M423 385l0 -2"/>
<path stroke="blue" d="M423 385l1 -2M424 385l0 -2M424 385l1 -2M425 385l0 -2 1 2 0 -2 1 2 0 -2 1 2 0 -2M428 385l1 -2M429 385l0 -2M429 385l1 -2M430 384l0 -1M430 384l23 0M453 387l0 -303M453 97l1 -2M454 97l0 -2M454 97l1 -2M455 97l0 -2M455 97l1 -2"/>
<path stroke="blue" d="M456 97l0 -2 1 2 0 -2 1 2 0 -2 1 2 0 -2M459 97l1 -2M460 97l0 -2M460 97l1 -2M461 97l0 -2M461 97l1 -2M462 96l0 -1M462 96l14 0M476 97l0 -1 23 0M499 394l0 -298M499 383l1 2 0 -2 1 2 0 -2 1 2 0 -2M502 385l1 -2M503 385l0 -2M503 385l1 -2"/>
<path stroke="blue" d="M504 385l0 -2 1 2 0 -2 1 2 0 -2 1 2 0 -2M507 385l1 -2M508 385l0 -2M508 385l1 -2M509 385l0 -2M509 385l1 -2M510 385l0 -2 1 2 0 -2 1 2 0 -2 1 2 0 -2M513 385l1 -2M514 385l0 -2M514 385l1 -2M515 385l0 -2M515 385l1 -2M516 385l0 -2"/>
<path stroke="blue" d="M516 383l1 2 0 -2 1 2 0 -2 1 2 0 -2M519 385l1 -2M520 385l0 -2M520 385l1 -2M521 385l0 -2M521 385l1 -2M522 384l0 -1M522 384l23 0M545 387l0 -305M545 96l23 0M568 97l0 -1 23 0M591 395l0 -305M591 386l1 -4M592 386l0 -4 1 4 0 -4"/>
<path stroke="blue" d="M593 382l1 4 0 -4 1 4 0 -4M595 386l1 -4M596 386l0 -4M596 386l1 -4M597 386l0 -4M597 386l1 -4M598 386l0 -4 1 4 0 -4 1 4 0 -4 1 4 0 -4M601 386l1 -4M602 386l0 -4M602 386l1 -4M603 385l0 -3M603 385l1 -2M604 385l0 -2 1 2 0 -2"/>
<path stroke="blue" d="M605 383l1 2 0 -2M606 385l1 -2M607 385l0 -2M607 385l1 -2M608 385l0 -2M608 385l1 -2M609 385l0 -2 1 2 0 -2 1 2 0 -2 1 2 0 -2M612 385l1 -2M613 385l0 -2M613 385l1 -2M614 384l0 -1M614 384l23 0M637 387l0 -304M637 97l1 -2M638 97l0 -2"/>
<path stroke="blue" d="M638 95l1 2 0 -2 1 2 0 -2 1 2 0 -2M641 97l1 -2M642 97l0 -2M642 97l1 -2M643 97l0 -2 1 2 0 -2 1 2 0 -2M645 96l15 0M660 97l0 -1 23 0M683 390l0 -294M683 383l1 2 0 -2 1 2 0 -2M685 385l1 -2M686 385l0 -2M686 385l1 -2M687 385l0 -2"/>
<path stroke="blue" d="M687 385l1 -2M688 385l0 -2 1 2 0 -2 1 2 0 -2 1 2 0 -2M691 385l1 -2M692 385l0 -2M692 385l1 -2M693 385l0 -2 1 2 0 -2 1 2 0 -2 1 2 0 -2M696 385l1 -2M697 385l0 -2M697 385l1 -2M698 385l0 -2M698 385l1 -2M699 385l0 -2 1 2 0 -2"/>
<path stroke="blue" d="M700 383l1 2 0 -2 1 2 0 -2M702 385l1 -2M703 385l0 -2M703 385l1 -2M704 385l0 -2M704 385l1 -2M705 385l0 -2M705 385l1 -1 23 0M729 386l0 -305M729 97l1 -2M730 97l0 -2M730 97l1 -2M731 96l0 -1M731 96l21 0M752 97l0 -1 23 0M775 391l0 -301"/>
<path stroke="blue" d="M775 383l1 2 0 -2 1 2 0 -2 1 2 0 -2M778 385l1 -2M779 385l0 -2M779 385l1 -2M780 385l0 -2M780 385l1 -2M781 385l0 -2 1 2 0 -2 1 2 0 -2 1 2 0 -2M784 385l1 -2M785 385l0 -2M785 385l1 -2M786 385l0 -2M786 385l1 -2M787 385l0 -2"/>
<path stroke="blue" d="M787 383l1 2 0 -2 1 2 0 -2 1 2 0 -2M790 385l1 -2M791 385l0 -2M791 385l1 -2M792 385l0 -2M792 385l1 -2M793 385l0 -2 1 2 0 -2 1 2 0 -2M795 385l1 -2M796 385l0 -2M796 385l1 -2M797 385l0 -2 1 1 23 0M821 387l0 -302M821 97l1 -2"/>
<path stroke="blue" d="M822 97l0 -2 1 2 0 -2 1 2 0 -2 1 2 0 -2M825 97l1 -2M826 97l0 -2M826 97l1 -2M827 97l0 -2M827 97l1 -2M828 96l0 -1M828 96l16 0M844 97l0 -1 23 0M867 389l0 -293M867 385l1 -2M868 385l0 -2M868 385l1 -2M869 385l0 -2M869 385l1 -2"/>
<path stroke="blue" d="M870 385l0 -2 1 2 0 -2 1 2 0 -2 1 2 0 -2M873 385l1 -2M874 385l0 -2M874 385l1 -2M875 385l0 -2M875 385l1 -2M876 385l0 -2 1 2 0 -2 1 2 0 -2 1 2 0 -2M879 385l1 -2M880 385l0 -2M880 385l1 -2M881 385l0 -2M881 385l1 -2M882 385l0 -2"/>
<path stroke="blue" d="M882 383l1 2 0 -2 1 2 0 -2M884 385l1 -2M885 385l0 -2M885 385l1 -2M886 385l0 -2M886 385l1 -2M887 385l0 -2 1 2 0 -2 1 2 0 -2 1 2 0 -1 23 0M913 388l0 -301M913 96l23 0M936 97l0 -1 23 0M959 392l0 -302M959 385l1 -2M960 385l0 -2"/>
<path stroke="blue" d="M960 385l1 -2M961 385l0 -2M961 385l1 -2M962 385l0 -2 1 2 0 -2 1 2 0 -2 1 2 0 -2M965 385l1 -2M966 385l0 -2M966 385l1 -2M967 385l0 -2M967 385l1 -2M968 385l0 -2 1 2 0 -2 1 2 0 -2"/>
</svg>
